<svg width="1774" height="256" viewBox="0 0 1774 256" fill="none" xmlns="http://www.w3.org/2000/svg">
<rect width="231.339" height="51.0004" transform="matrix(-0.999942 0.0107989 0.0122191 0.999925 231.325 179)" fill="#44BEE4"/>
<rect width="117.01" height="53" transform="matrix(-1 0 0 1 163.87 138)" fill="#44BEE4"/>
<ellipse rx="26.5933" ry="25" transform="matrix(-1 0 0 1 169.188 231)" fill="#5A5A5A"/>
<path d="M148.977 231.5C148.977 241.717 157.788 250 168.656 250C179.525 250 188.335 241.717 188.335 231.5C188.335 221.283 179.525 213 168.656 213C157.788 213 148.977 221.283 148.977 231.5Z" fill="#848181"/>
<path d="M148.977 231.5C148.977 241.717 157.788 250 168.656 250C179.525 250 188.335 241.717 188.335 231.5C188.335 221.283 179.525 213 168.656 213C157.788 213 148.977 221.283 148.977 231.5Z" fill="#848181"/>
<path d="M148.977 231.5C148.977 241.717 157.788 250 168.656 250C179.525 250 188.335 241.717 188.335 231.5C188.335 221.283 179.525 213 168.656 213C157.788 213 148.977 221.283 148.977 231.5Z" fill="#848181"/>
<ellipse rx="26.5933" ry="25" transform="matrix(-1 0 0 1 57.4964 231)" fill="#5A5A5A"/>
<path d="M38.3493 230.5C38.3493 240.717 47.1599 249 58.0284 249C68.8968 249 77.7074 240.717 77.7074 230.5C77.7074 220.283 68.8968 212 58.0284 212C47.1599 212 38.3493 220.283 38.3493 230.5Z" fill="#848181"/>
<path d="M38.3493 230.5C38.3493 240.717 47.1599 249 58.0284 249C68.8968 249 77.7074 240.717 77.7074 230.5C77.7074 220.283 68.8968 212 58.0284 212C47.1599 212 38.3493 220.283 38.3493 230.5Z" fill="#848181"/>
<path d="M38.3493 230.5C38.3493 240.717 47.1599 249 58.0284 249C68.8968 249 77.7074 240.717 77.7074 230.5C77.7074 220.283 68.8968 212 58.0284 212C47.1599 212 38.3493 220.283 38.3493 230.5Z" fill="#848181"/>
<path d="M46.8592 232C46.8592 237.523 51.6216 242 57.4965 242C63.3713 242 68.1338 237.523 68.1338 232C68.1338 226.477 63.3713 222 57.4965 222C51.6216 222 46.8592 226.477 46.8592 232Z" fill="#848181"/>
<path d="M46.8592 232C46.8592 237.523 51.6216 242 57.4965 242C63.3713 242 68.1338 237.523 68.1338 232C68.1338 226.477 63.3713 222 57.4965 222C51.6216 222 46.8592 226.477 46.8592 232Z" fill="#848181"/>
<path d="M46.8592 232C46.8592 237.523 51.6216 242 57.4965 242C63.3713 242 68.1338 237.523 68.1338 232C68.1338 226.477 63.3713 222 57.4965 222C51.6216 222 46.8592 226.477 46.8592 232Z" fill="#B6B1B1"/>
<path d="M158.551 232C158.551 237.523 163.314 242 169.188 242C175.063 242 179.826 237.523 179.826 232C179.826 226.477 175.063 222 169.188 222C163.314 222 158.551 226.477 158.551 232Z" fill="#848181"/>
<path d="M158.551 232C158.551 237.523 163.314 242 169.188 242C175.063 242 179.826 237.523 179.826 232C179.826 226.477 175.063 222 169.188 222C163.314 222 158.551 226.477 158.551 232Z" fill="#848181"/>
<path d="M158.551 232C158.551 237.523 163.314 242 169.188 242C175.063 242 179.826 237.523 179.826 232C179.826 226.477 175.063 222 169.188 222C163.314 222 158.551 226.477 158.551 232Z" fill="#B6B1B1"/>
<rect width="40.4218" height="24" transform="matrix(-1 0 0 1 156.424 153)" fill="#939393"/>
<rect width="40.4218" height="24" transform="matrix(-1 0 0 1 97.9182 153)" fill="#939393"/>
<rect width="25.5296" height="12" transform="matrix(-1 0 0 1 231.948 179)" fill="#C5AF3B"/>
<rect x="105.586" y="50" width="217.48" height="51" transform="rotate(0.658175 105.586 50)" fill="#1E667C"/>
<rect x="169" y="9" width="110" height="53" fill="#1E667C"/>
<circle cx="164" cy="102" r="25" fill="#5A5A5A"/>
<path d="M183 102.5C183 112.717 174.717 121 164.5 121C154.283 121 146 112.717 146 102.5C146 92.2827 154.283 84 164.5 84C174.717 84 183 92.2827 183 102.5Z" fill="#848181"/>
<path d="M183 102.5C183 112.717 174.717 121 164.5 121C154.283 121 146 112.717 146 102.5C146 92.2827 154.283 84 164.5 84C174.717 84 183 92.2827 183 102.5Z" fill="#848181"/>
<path d="M183 102.5C183 112.717 174.717 121 164.5 121C154.283 121 146 112.717 146 102.5C146 92.2827 154.283 84 164.5 84C174.717 84 183 92.2827 183 102.5Z" fill="#848181"/>
<circle cx="269" cy="102" r="25" fill="#5A5A5A"/>
<path d="M287 101.5C287 111.717 278.717 120 268.5 120C258.283 120 250 111.717 250 101.5C250 91.2827 258.283 83 268.5 83C278.717 83 287 91.2827 287 101.5Z" fill="#848181"/>
<path d="M287 101.5C287 111.717 278.717 120 268.5 120C258.283 120 250 111.717 250 101.5C250 91.2827 258.283 83 268.5 83C278.717 83 287 91.2827 287 101.5Z" fill="#848181"/>
<path d="M287 101.5C287 111.717 278.717 120 268.5 120C258.283 120 250 111.717 250 101.5C250 91.2827 258.283 83 268.5 83C278.717 83 287 91.2827 287 101.5Z" fill="#848181"/>
<path d="M279 103C279 108.523 274.523 113 269 113C263.477 113 259 108.523 259 103C259 97.4772 263.477 93 269 93C274.523 93 279 97.4772 279 103Z" fill="#848181"/>
<path d="M279 103C279 108.523 274.523 113 269 113C263.477 113 259 108.523 259 103C259 97.4772 263.477 93 269 93C274.523 93 279 97.4772 279 103Z" fill="#848181"/>
<path d="M279 103C279 108.523 274.523 113 269 113C263.477 113 259 108.523 259 103C259 97.4772 263.477 93 269 93C274.523 93 279 97.4772 279 103Z" fill="#B6B1B1"/>
<path d="M174 103C174 108.523 169.523 113 164 113C158.477 113 154 108.523 154 103C154 97.4772 158.477 93 164 93C169.523 93 174 97.4772 174 103Z" fill="#848181"/>
<path d="M174 103C174 108.523 169.523 113 164 113C158.477 113 154 108.523 154 103C154 97.4772 158.477 93 164 93C169.523 93 174 97.4772 174 103Z" fill="#848181"/>
<path d="M174 103C174 108.523 169.523 113 164 113C158.477 113 154 108.523 154 103C154 97.4772 158.477 93 164 93C169.523 93 174 97.4772 174 103Z" fill="#B6B1B1"/>
<rect x="176" y="24" width="38" height="24" fill="#939393"/>
<rect x="231" y="24" width="38" height="24" fill="#939393"/>
<rect x="105" y="50" width="24" height="12" fill="#C5AF3B"/>
<rect x="1555.59" y="50" width="217.48" height="51" transform="rotate(0.658175 1555.59 50)" fill="#E44461"/>
<rect x="1619" y="9" width="110" height="53" fill="#E44461"/>
<circle cx="1614" cy="102" r="25" fill="#5A5A5A"/>
<path d="M1633 102.5C1633 112.717 1624.72 121 1614.5 121C1604.28 121 1596 112.717 1596 102.5C1596 92.2827 1604.28 84 1614.5 84C1624.72 84 1633 92.2827 1633 102.5Z" fill="#848181"/>
<path d="M1633 102.5C1633 112.717 1624.72 121 1614.5 121C1604.28 121 1596 112.717 1596 102.5C1596 92.2827 1604.28 84 1614.5 84C1624.72 84 1633 92.2827 1633 102.5Z" fill="#848181"/>
<path d="M1633 102.5C1633 112.717 1624.72 121 1614.5 121C1604.28 121 1596 112.717 1596 102.5C1596 92.2827 1604.28 84 1614.5 84C1624.72 84 1633 92.2827 1633 102.5Z" fill="#848181"/>
<circle cx="1719" cy="102" r="25" fill="#5A5A5A"/>
<path d="M1737 101.5C1737 111.717 1728.72 120 1718.5 120C1708.28 120 1700 111.717 1700 101.5C1700 91.2827 1708.28 83 1718.5 83C1728.72 83 1737 91.2827 1737 101.5Z" fill="#848181"/>
<path d="M1737 101.5C1737 111.717 1728.72 120 1718.5 120C1708.28 120 1700 111.717 1700 101.5C1700 91.2827 1708.28 83 1718.5 83C1728.72 83 1737 91.2827 1737 101.5Z" fill="#848181"/>
<path d="M1737 101.5C1737 111.717 1728.72 120 1718.5 120C1708.28 120 1700 111.717 1700 101.5C1700 91.2827 1708.28 83 1718.5 83C1728.72 83 1737 91.2827 1737 101.5Z" fill="#848181"/>
<path d="M1729 103C1729 108.523 1724.52 113 1719 113C1713.48 113 1709 108.523 1709 103C1709 97.4772 1713.48 93 1719 93C1724.52 93 1729 97.4772 1729 103Z" fill="#848181"/>
<path d="M1729 103C1729 108.523 1724.52 113 1719 113C1713.48 113 1709 108.523 1709 103C1709 97.4772 1713.48 93 1719 93C1724.52 93 1729 97.4772 1729 103Z" fill="#848181"/>
<path d="M1729 103C1729 108.523 1724.52 113 1719 113C1713.48 113 1709 108.523 1709 103C1709 97.4772 1713.48 93 1719 93C1724.52 93 1729 97.4772 1729 103Z" fill="#B6B1B1"/>
<path d="M1624 103C1624 108.523 1619.52 113 1614 113C1608.48 113 1604 108.523 1604 103C1604 97.4772 1608.48 93 1614 93C1619.52 93 1624 97.4772 1624 103Z" fill="#848181"/>
<path d="M1624 103C1624 108.523 1619.52 113 1614 113C1608.48 113 1604 108.523 1604 103C1604 97.4772 1608.48 93 1614 93C1619.52 93 1624 97.4772 1624 103Z" fill="#848181"/>
<path d="M1624 103C1624 108.523 1619.52 113 1614 113C1608.48 113 1604 108.523 1604 103C1604 97.4772 1608.48 93 1614 93C1619.52 93 1624 97.4772 1624 103Z" fill="#B6B1B1"/>
<rect x="1626" y="24" width="38" height="24" fill="#939393"/>
<rect x="1681" y="24" width="38" height="24" fill="#939393"/>
<rect x="1555" y="50" width="24" height="12" fill="#C5AF3B"/>
<rect x="597.586" y="41" width="217.48" height="51" transform="rotate(0.658175 597.586 41)" fill="#E4A444"/>
<rect x="661" width="110" height="53" fill="#E4A444"/>
<circle cx="656" cy="93" r="25" fill="#5A5A5A"/>
<path d="M675 93.5C675 103.717 666.717 112 656.5 112C646.283 112 638 103.717 638 93.5C638 83.2827 646.283 75 656.5 75C666.717 75 675 83.2827 675 93.5Z" fill="#848181"/>
<path d="M675 93.5C675 103.717 666.717 112 656.5 112C646.283 112 638 103.717 638 93.5C638 83.2827 646.283 75 656.5 75C666.717 75 675 83.2827 675 93.5Z" fill="#848181"/>
<path d="M675 93.5C675 103.717 666.717 112 656.5 112C646.283 112 638 103.717 638 93.5C638 83.2827 646.283 75 656.5 75C666.717 75 675 83.2827 675 93.5Z" fill="#848181"/>
<circle cx="761" cy="93" r="25" fill="#5A5A5A"/>
<path d="M779 92.5C779 102.717 770.717 111 760.5 111C750.283 111 742 102.717 742 92.5C742 82.2827 750.283 74 760.5 74C770.717 74 779 82.2827 779 92.5Z" fill="#848181"/>
<path d="M779 92.5C779 102.717 770.717 111 760.5 111C750.283 111 742 102.717 742 92.5C742 82.2827 750.283 74 760.5 74C770.717 74 779 82.2827 779 92.5Z" fill="#848181"/>
<path d="M779 92.5C779 102.717 770.717 111 760.5 111C750.283 111 742 102.717 742 92.5C742 82.2827 750.283 74 760.5 74C770.717 74 779 82.2827 779 92.5Z" fill="#848181"/>
<path d="M771 94C771 99.5228 766.523 104 761 104C755.477 104 751 99.5228 751 94C751 88.4772 755.477 84 761 84C766.523 84 771 88.4772 771 94Z" fill="#848181"/>
<path d="M771 94C771 99.5228 766.523 104 761 104C755.477 104 751 99.5228 751 94C751 88.4772 755.477 84 761 84C766.523 84 771 88.4772 771 94Z" fill="#848181"/>
<path d="M771 94C771 99.5228 766.523 104 761 104C755.477 104 751 99.5228 751 94C751 88.4772 755.477 84 761 84C766.523 84 771 88.4772 771 94Z" fill="#B6B1B1"/>
<path d="M666 94C666 99.5228 661.523 104 656 104C650.477 104 646 99.5228 646 94C646 88.4772 650.477 84 656 84C661.523 84 666 88.4772 666 94Z" fill="#848181"/>
<path d="M666 94C666 99.5228 661.523 104 656 104C650.477 104 646 99.5228 646 94C646 88.4772 650.477 84 656 84C661.523 84 666 88.4772 666 94Z" fill="#848181"/>
<path d="M666 94C666 99.5228 661.523 104 656 104C650.477 104 646 99.5228 646 94C646 88.4772 650.477 84 656 84C661.523 84 666 88.4772 666 94Z" fill="#B6B1B1"/>
<rect x="668" y="15" width="38" height="24" fill="#939393"/>
<rect x="723" y="15" width="38" height="24" fill="#939393"/>
<rect x="597" y="41" width="24" height="12" fill="#C5AF3B"/>
<rect width="220.369" height="51.0001" transform="matrix(-0.999936 0.0113365 0.0116397 0.999932 580.355 179)" fill="#44E471"/>
<rect width="111.461" height="53" transform="matrix(-1 0 0 1 516.098 138)" fill="#44E471"/>
<ellipse rx="25.3321" ry="25" transform="matrix(-1 0 0 1 521.165 231)" fill="#5A5A5A"/>
<path d="M501.912 231.5C501.912 241.717 510.305 250 520.658 250C531.011 250 539.404 241.717 539.404 231.5C539.404 221.283 531.011 213 520.658 213C510.305 213 501.912 221.283 501.912 231.5Z" fill="#848181"/>
<path d="M501.912 231.5C501.912 241.717 510.305 250 520.658 250C531.011 250 539.404 241.717 539.404 231.5C539.404 221.283 531.011 213 520.658 213C510.305 213 501.912 221.283 501.912 231.5Z" fill="#848181"/>
<path d="M501.912 231.5C501.912 241.717 510.305 250 520.658 250C531.011 250 539.404 241.717 539.404 231.5C539.404 221.283 531.011 213 520.658 213C510.305 213 501.912 221.283 501.912 231.5Z" fill="#848181"/>
<ellipse rx="25.3321" ry="25" transform="matrix(-1 0 0 1 414.77 231)" fill="#5A5A5A"/>
<path d="M396.531 230.5C396.531 240.717 404.923 249 415.276 249C425.629 249 434.022 240.717 434.022 230.5C434.022 220.283 425.629 212 415.276 212C404.923 212 396.531 220.283 396.531 230.5Z" fill="#848181"/>
<path d="M396.531 230.5C396.531 240.717 404.923 249 415.276 249C425.629 249 434.022 240.717 434.022 230.5C434.022 220.283 425.629 212 415.276 212C404.923 212 396.531 220.283 396.531 230.5Z" fill="#848181"/>
<path d="M396.531 230.5C396.531 240.717 404.923 249 415.276 249C425.629 249 434.022 240.717 434.022 230.5C434.022 220.283 425.629 212 415.276 212C404.923 212 396.531 220.283 396.531 230.5Z" fill="#848181"/>
<path d="M404.637 232C404.637 237.523 409.174 242 414.77 242C420.366 242 424.903 237.523 424.903 232C424.903 226.477 420.366 222 414.77 222C409.174 222 404.637 226.477 404.637 232Z" fill="#848181"/>
<path d="M404.637 232C404.637 237.523 409.174 242 414.77 242C420.366 242 424.903 237.523 424.903 232C424.903 226.477 420.366 222 414.77 222C409.174 222 404.637 226.477 404.637 232Z" fill="#848181"/>
<path d="M404.637 232C404.637 237.523 409.174 242 414.77 242C420.366 242 424.903 237.523 424.903 232C424.903 226.477 420.366 222 414.77 222C409.174 222 404.637 226.477 404.637 232Z" fill="#B6B1B1"/>
<path d="M511.032 232C511.032 237.523 515.568 242 521.165 242C526.761 242 531.297 237.523 531.297 232C531.297 226.477 526.761 222 521.165 222C515.568 222 511.032 226.477 511.032 232Z" fill="#848181"/>
<path d="M511.032 232C511.032 237.523 515.568 242 521.165 242C526.761 242 531.297 237.523 531.297 232C531.297 226.477 526.761 222 521.165 222C515.568 222 511.032 226.477 511.032 232Z" fill="#848181"/>
<path d="M511.032 232C511.032 237.523 515.568 242 521.165 242C526.761 242 531.297 237.523 531.297 232C531.297 226.477 526.761 222 521.165 222C515.568 222 511.032 226.477 511.032 232Z" fill="#B6B1B1"/>
<rect width="38.5048" height="24" transform="matrix(-1 0 0 1 509.005 153)" fill="#939393"/>
<rect width="38.5048" height="24" transform="matrix(-1 0 0 1 453.275 153)" fill="#939393"/>
<rect width="24.3188" height="12" transform="matrix(-1 0 0 1 580.948 179)" fill="#C5AF3B"/>
<rect width="212.391" height="50.9998" transform="matrix(-0.999931 0.0117623 0.0112183 0.999937 1434.38 179)" fill="#E4D444"/>
<rect width="107.426" height="53" transform="matrix(-1 0 0 1 1372.45 138)" fill="#E4D444"/>
<ellipse rx="24.4149" ry="25" transform="matrix(-1 0 0 1 1377.33 231)" fill="#5A5A5A"/>
<path d="M1358.77 231.5C1358.77 241.717 1366.86 250 1376.84 250C1386.82 250 1394.91 241.717 1394.91 231.5C1394.91 221.283 1386.82 213 1376.84 213C1366.86 213 1358.77 221.283 1358.77 231.5Z" fill="#848181"/>
<path d="M1358.77 231.5C1358.77 241.717 1366.86 250 1376.84 250C1386.82 250 1394.91 241.717 1394.91 231.5C1394.91 221.283 1386.82 213 1376.84 213C1366.86 213 1358.77 221.283 1358.77 231.5Z" fill="#848181"/>
<path d="M1358.77 231.5C1358.77 241.717 1366.86 250 1376.84 250C1386.82 250 1394.91 241.717 1394.91 231.5C1394.91 221.283 1386.82 213 1376.84 213C1366.86 213 1358.77 221.283 1358.77 231.5Z" fill="#848181"/>
<ellipse rx="24.4149" ry="25" transform="matrix(-1 0 0 1 1274.79 231)" fill="#5A5A5A"/>
<path d="M1257.21 230.5C1257.21 240.717 1265.3 249 1275.27 249C1285.25 249 1293.34 240.717 1293.34 230.5C1293.34 220.283 1285.25 212 1275.27 212C1265.3 212 1257.21 220.283 1257.21 230.5Z" fill="#848181"/>
<path d="M1257.21 230.5C1257.21 240.717 1265.3 249 1275.27 249C1285.25 249 1293.34 240.717 1293.34 230.5C1293.34 220.283 1285.25 212 1275.27 212C1265.3 212 1257.21 220.283 1257.21 230.5Z" fill="#848181"/>
<path d="M1257.21 230.5C1257.21 240.717 1265.3 249 1275.27 249C1285.25 249 1293.34 240.717 1293.34 230.5C1293.34 220.283 1285.25 212 1275.27 212C1265.3 212 1257.21 220.283 1257.21 230.5Z" fill="#848181"/>
<path d="M1265.02 232C1265.02 237.523 1269.39 242 1274.79 242C1280.18 242 1284.55 237.523 1284.55 232C1284.55 226.477 1280.18 222 1274.79 222C1269.39 222 1265.02 226.477 1265.02 232Z" fill="#848181"/>
<path d="M1265.02 232C1265.02 237.523 1269.39 242 1274.79 242C1280.18 242 1284.55 237.523 1284.55 232C1284.55 226.477 1280.18 222 1274.79 222C1269.39 222 1265.02 226.477 1265.02 232Z" fill="#848181"/>
<path d="M1265.02 232C1265.02 237.523 1269.39 242 1274.79 242C1280.18 242 1284.55 237.523 1284.55 232C1284.55 226.477 1280.18 222 1274.79 222C1269.39 222 1265.02 226.477 1265.02 232Z" fill="#B6B1B1"/>
<path d="M1367.56 232C1367.56 237.523 1371.94 242 1377.33 242C1382.72 242 1387.1 237.523 1387.1 232C1387.1 226.477 1382.72 222 1377.33 222C1371.94 222 1367.56 226.477 1367.56 232Z" fill="#848181"/>
<path d="M1367.56 232C1367.56 237.523 1371.94 242 1377.33 242C1382.72 242 1387.1 237.523 1387.1 232C1387.1 226.477 1382.72 222 1377.33 222C1371.94 222 1367.56 226.477 1367.56 232Z" fill="#848181"/>
<path d="M1367.56 232C1367.56 237.523 1371.94 242 1377.33 242C1382.72 242 1387.1 237.523 1387.1 232C1387.1 226.477 1382.72 222 1377.33 222C1371.94 222 1367.56 226.477 1367.56 232Z" fill="#B6B1B1"/>
<rect width="37.1107" height="24" transform="matrix(-1 0 0 1 1365.61 153)" fill="#939393"/>
<rect width="37.1107" height="24" transform="matrix(-1 0 0 1 1311.9 153)" fill="#939393"/>
<rect width="23.4383" height="12" transform="matrix(-1 0 0 1 1434.95 179)" fill="#C5AF3B"/>
<rect x="951.586" y="41" width="217.48" height="51" transform="rotate(0.658175 951.586 41)" fill="#A659C0"/>
<rect x="1015" width="110" height="53" fill="#A659C0"/>
<circle cx="1010" cy="93" r="25" fill="#5A5A5A"/>
<path d="M1029 93.5C1029 103.717 1020.72 112 1010.5 112C1000.28 112 992 103.717 992 93.5C992 83.2827 1000.28 75 1010.5 75C1020.72 75 1029 83.2827 1029 93.5Z" fill="#848181"/>
<path d="M1029 93.5C1029 103.717 1020.72 112 1010.5 112C1000.28 112 992 103.717 992 93.5C992 83.2827 1000.28 75 1010.5 75C1020.72 75 1029 83.2827 1029 93.5Z" fill="#848181"/>
<path d="M1029 93.5C1029 103.717 1020.72 112 1010.5 112C1000.28 112 992 103.717 992 93.5C992 83.2827 1000.28 75 1010.5 75C1020.72 75 1029 83.2827 1029 93.5Z" fill="#848181"/>
<circle cx="1115" cy="93" r="25" fill="#5A5A5A"/>
<path d="M1133 92.5C1133 102.717 1124.72 111 1114.5 111C1104.28 111 1096 102.717 1096 92.5C1096 82.2827 1104.28 74 1114.5 74C1124.72 74 1133 82.2827 1133 92.5Z" fill="#848181"/>
<path d="M1133 92.5C1133 102.717 1124.72 111 1114.5 111C1104.28 111 1096 102.717 1096 92.5C1096 82.2827 1104.28 74 1114.5 74C1124.72 74 1133 82.2827 1133 92.5Z" fill="#848181"/>
<path d="M1133 92.5C1133 102.717 1124.72 111 1114.5 111C1104.28 111 1096 102.717 1096 92.5C1096 82.2827 1104.28 74 1114.5 74C1124.72 74 1133 82.2827 1133 92.5Z" fill="#848181"/>
<path d="M1125 94C1125 99.5228 1120.52 104 1115 104C1109.48 104 1105 99.5228 1105 94C1105 88.4772 1109.48 84 1115 84C1120.52 84 1125 88.4772 1125 94Z" fill="#848181"/>
<path d="M1125 94C1125 99.5228 1120.52 104 1115 104C1109.48 104 1105 99.5228 1105 94C1105 88.4772 1109.48 84 1115 84C1120.52 84 1125 88.4772 1125 94Z" fill="#848181"/>
<path d="M1125 94C1125 99.5228 1120.52 104 1115 104C1109.48 104 1105 99.5228 1105 94C1105 88.4772 1109.48 84 1115 84C1120.52 84 1125 88.4772 1125 94Z" fill="#B6B1B1"/>
<path d="M1020 94C1020 99.5228 1015.52 104 1010 104C1004.48 104 1000 99.5228 1000 94C1000 88.4772 1004.48 84 1010 84C1015.52 84 1020 88.4772 1020 94Z" fill="#848181"/>
<path d="M1020 94C1020 99.5228 1015.52 104 1010 104C1004.48 104 1000 99.5228 1000 94C1000 88.4772 1004.48 84 1010 84C1015.52 84 1020 88.4772 1020 94Z" fill="#848181"/>
<path d="M1020 94C1020 99.5228 1015.52 104 1010 104C1004.48 104 1000 99.5228 1000 94C1000 88.4772 1004.48 84 1010 84C1015.52 84 1020 88.4772 1020 94Z" fill="#B6B1B1"/>
<rect x="1022" y="15" width="38" height="24" fill="#939393"/>
<rect x="1077" y="15" width="38" height="24" fill="#939393"/>
<rect x="951" y="41" width="24" height="12" fill="#C5AF3B"/>
</svg>
