<svg width="1259" height="855" viewBox="0 0 1259 855" fill="none" xmlns="http://www.w3.org/2000/svg">
<rect y="446.649" width="199" height="408.351" fill="#848E99"/>
<rect x="22.1111" y="430.721" width="156.006" height="15.9286" fill="#848E99"/>
<rect x="44.2222" y="409" width="111.784" height="21.7208" fill="#848E99"/>
<rect x="22.1111" y="468.37" width="14.7407" height="105.708" fill="#58668A"/>
<rect x="163.377" y="468.37" width="14.7407" height="105.708" fill="#58668A"/>
<rect x="140.037" y="468.37" width="14.7407" height="105.708" fill="#58668A"/>
<rect x="104.414" y="468.37" width="14.7407" height="105.708" fill="#58668A"/>
<rect x="81.0741" y="468.37" width="14.7407" height="105.708" fill="#58668A"/>
<rect x="45.4506" y="468.37" width="14.7407" height="105.708" fill="#58668A"/>
<rect x="18.4259" y="723.227" width="14.7407" height="105.708" fill="#58668A"/>
<rect x="159.691" y="723.227" width="14.7407" height="105.708" fill="#58668A"/>
<rect x="136.352" y="723.227" width="14.7407" height="105.708" fill="#58668A"/>
<rect x="100.728" y="723.227" width="14.7407" height="105.708" fill="#58668A"/>
<rect x="77.3889" y="723.227" width="14.7407" height="105.708" fill="#58668A"/>
<rect x="41.7654" y="723.227" width="14.7407" height="105.708" fill="#58668A"/>
<rect x="18.4259" y="595.799" width="14.7407" height="105.708" fill="#58668A"/>
<rect x="159.691" y="595.799" width="14.7407" height="105.708" fill="#58668A"/>
<rect x="136.352" y="595.799" width="14.7407" height="105.708" fill="#58668A"/>
<rect x="100.728" y="595.799" width="14.7407" height="105.708" fill="#58668A"/>
<rect x="77.3889" y="595.799" width="14.7407" height="105.708" fill="#58668A"/>
<rect x="41.7654" y="595.799" width="14.7407" height="105.708" fill="#58668A"/>
<rect x="801" y="347" width="161" height="508" fill="#848E90"/>
<rect x="814" y="373.562" width="33" height="129.49" fill="#58668A"/>
<rect x="916" y="373.562" width="33" height="129.49" fill="#58668A"/>
<rect x="865" y="373.562" width="33" height="129.49" fill="#58668A"/>
<rect x="814" y="527.954" width="33" height="129.49" fill="#58668A"/>
<rect x="916" y="527.954" width="33" height="129.49" fill="#58668A"/>
<rect x="865" y="527.954" width="33" height="129.49" fill="#58668A"/>
<rect x="814" y="682.346" width="33" height="129.49" fill="#58668A"/>
<rect x="916" y="682.346" width="33" height="129.49" fill="#58668A"/>
<rect x="865" y="682.346" width="33" height="129.49" fill="#58668A"/>
<rect x="213" y="318.206" width="242" height="536.794" fill="#848E90"/>
<path d="M239.889 269H426.431V318.206H239.889V269Z" fill="#58668A"/>
<path d="M213 343.555H455V409.163H213V343.555Z" fill="#58668A"/>
<path d="M213 725.275H455V796.847H213V725.275Z" fill="#58668A"/>
<path d="M213 628.354H455V699.926H213V628.354Z" fill="#58668A"/>
<path d="M213 531.433H455V603.005H213V531.433Z" fill="#58668A"/>
<path d="M213 437.494H455V506.084H213V437.494Z" fill="#58668A"/>
<rect x="409" y="517" width="161" height="338" fill="#848E99"/>
<rect x="422" y="534.673" width="33" height="86.1569" fill="#58668A"/>
<rect x="524" y="534.673" width="33" height="86.1569" fill="#58668A"/>
<rect x="473" y="534.673" width="33" height="86.1569" fill="#58668A"/>
<rect x="422" y="637.399" width="33" height="86.1569" fill="#58668A"/>
<rect x="524" y="637.399" width="33" height="86.1569" fill="#58668A"/>
<rect x="473" y="637.399" width="33" height="86.1569" fill="#58668A"/>
<rect x="422" y="740.124" width="33" height="86.1569" fill="#58668A"/>
<rect x="524" y="740.124" width="33" height="86.1569" fill="#58668A"/>
<rect x="473" y="740.124" width="33" height="86.1569" fill="#58668A"/>
<rect x="610" y="495" width="144" height="360" fill="#848E99"/>
<path d="M626 462H737V495H626V462Z" fill="#58668A"/>
<path d="M610 512H754V556H610V512Z" fill="#58668A"/>
<path d="M610 768H754V816H610V768Z" fill="#58668A"/>
<path d="M610 703H754V751H610V703Z" fill="#58668A"/>
<path d="M610 638H754V686H610V638Z" fill="#58668A"/>
<path d="M610 575H754V621H610V575Z" fill="#58668A"/>
<rect x="1037" y="186" width="222" height="666" fill="#848E99"/>
<rect x="1066" y="156" width="164" height="30" fill="#848E99"/>
<rect x="1140" width="15" height="156" fill="#848E99"/>
<rect x="1055" y="230" width="40" height="49" fill="#58668A"/>
<rect x="1200" y="230" width="40" height="49" fill="#58668A"/>
<rect x="1128" y="230" width="40" height="49" fill="#58668A"/>
<rect x="1055" y="699" width="40" height="49" fill="#58668A"/>
<rect x="1200" y="699" width="40" height="49" fill="#58668A"/>
<rect x="1128" y="699" width="40" height="49" fill="#58668A"/>
<rect x="1055" y="606" width="40" height="49" fill="#58668A"/>
<rect x="1200" y="606" width="40" height="49" fill="#58668A"/>
<rect x="1128" y="606" width="40" height="49" fill="#58668A"/>
<rect x="1055" y="513" width="40" height="49" fill="#58668A"/>
<rect x="1200" y="513" width="40" height="49" fill="#58668A"/>
<rect x="1128" y="513" width="40" height="49" fill="#58668A"/>
<rect x="1055" y="420" width="40" height="49" fill="#58668A"/>
<rect x="1200" y="420" width="40" height="49" fill="#58668A"/>
<rect x="1128" y="420" width="40" height="49" fill="#58668A"/>
<rect x="1055" y="325" width="40" height="49" fill="#58668A"/>
<rect x="1200" y="325" width="40" height="49" fill="#58668A"/>
<rect x="1128" y="325" width="40" height="49" fill="#58668A"/>
</svg>
