<svg width="2911" height="1391" viewBox="0 0 2911 1391" fill="none" xmlns="http://www.w3.org/2000/svg">
<rect x="173" y="482.849" width="722" height="904.151" fill="#9A9680"/>
<rect x="371.69" y="437" width="327.419" height="45.8494" fill="#9A9680"/>
<rect x="249" y="531.57" width="70.9333" height="144.721" fill="#A6C8DB"/>
<rect x="740.467" y="531.57" width="70.9333" height="144.721" fill="#A6C8DB"/>
<rect x="611.267" y="531.57" width="70.9333" height="144.721" fill="#A6C8DB"/>
<rect x="380.733" y="531.57" width="70.9333" height="144.721" fill="#A6C8DB"/>
<rect x="254.067" y="921.314" width="70.9333" height="144.721" fill="#A6C8DB"/>
<rect x="745.533" y="921.314" width="70.9333" height="144.721" fill="#A6C8DB"/>
<rect x="616.333" y="921.314" width="70.9333" height="144.721" fill="#A6C8DB"/>
<rect x="385.8" y="921.314" width="70.9333" height="144.721" fill="#A6C8DB"/>
<rect x="254.067" y="726.442" width="70.9333" height="144.721" fill="#A6C8DB"/>
<rect x="745.533" y="726.442" width="70.9333" height="144.721" fill="#A6C8DB"/>
<rect x="616.333" y="726.442" width="70.9333" height="144.721" fill="#A6C8DB"/>
<rect x="385.8" y="726.442" width="70.9333" height="144.721" fill="#A6C8DB"/>
<rect x="254.067" y="726.442" width="70.9333" height="144.721" fill="#A6C8DB"/>
<rect x="745.533" y="726.442" width="70.9333" height="144.721" fill="#A6C8DB"/>
<rect x="616.333" y="726.442" width="70.9333" height="144.721" fill="#A6C8DB"/>
<rect x="385.8" y="726.442" width="70.9333" height="144.721" fill="#A6C8DB"/>
<rect x="249" y="1116.19" width="70.9333" height="144.721" fill="#A6C8DB"/>
<rect x="740.467" y="1116.19" width="70.9333" height="144.721" fill="#A6C8DB"/>
<rect x="611.267" y="1116.19" width="70.9333" height="144.721" fill="#A6C8DB"/>
<rect x="380.733" y="1116.19" width="70.9333" height="144.721" fill="#A6C8DB"/>
<rect x="249" y="1116.19" width="70.9333" height="144.721" fill="#A6C8DB"/>
<rect x="740.467" y="1116.19" width="70.9333" height="144.721" fill="#A6C8DB"/>
<rect x="611.267" y="1116.19" width="70.9333" height="144.721" fill="#A6C8DB"/>
<rect x="380.733" y="1116.19" width="70.9333" height="144.721" fill="#A6C8DB"/>
<rect y="755.998" width="285" height="631.002" fill="#067584"/>
<rect x="78.4302" y="724" width="129.244" height="31.9981" fill="#067584"/>
<rect x="30" y="790" width="28" height="101" fill="#A6C8DB"/>
<rect x="224" y="790" width="28" height="101" fill="#A6C8DB"/>
<rect x="173" y="790" width="28" height="101" fill="#A6C8DB"/>
<rect x="82" y="790" width="28" height="101" fill="#A6C8DB"/>
<rect x="32" y="1062" width="28" height="101" fill="#A6C8DB"/>
<rect x="226" y="1062" width="28" height="101" fill="#A6C8DB"/>
<rect x="175" y="1062" width="28" height="101" fill="#A6C8DB"/>
<rect x="84" y="1062" width="28" height="101" fill="#A6C8DB"/>
<rect x="32" y="926" width="28" height="101" fill="#A6C8DB"/>
<rect x="226" y="926" width="28" height="101" fill="#A6C8DB"/>
<rect x="175" y="926" width="28" height="101" fill="#A6C8DB"/>
<rect x="84" y="926" width="28" height="101" fill="#A6C8DB"/>
<rect x="32" y="926" width="28" height="101" fill="#A6C8DB"/>
<rect x="226" y="926" width="28" height="101" fill="#A6C8DB"/>
<rect x="175" y="926" width="28" height="101" fill="#A6C8DB"/>
<rect x="84" y="926" width="28" height="101" fill="#A6C8DB"/>
<rect x="30" y="1198" width="28" height="101" fill="#A6C8DB"/>
<rect x="224" y="1198" width="28" height="101" fill="#A6C8DB"/>
<rect x="173" y="1198" width="28" height="101" fill="#A6C8DB"/>
<rect x="82" y="1198" width="28" height="101" fill="#A6C8DB"/>
<rect x="30" y="1198" width="28" height="101" fill="#A6C8DB"/>
<rect x="224" y="1198" width="28" height="101" fill="#A6C8DB"/>
<rect x="173" y="1198" width="28" height="101" fill="#A6C8DB"/>
<rect x="82" y="1198" width="28" height="101" fill="#A6C8DB"/>
<rect x="2626" y="755.998" width="285" height="631.002" fill="#3AA26A"/>
<rect x="2704.43" y="724" width="129.244" height="31.9981" fill="#3AA26A"/>
<rect x="2656" y="790" width="28" height="101" fill="#81A9C0"/>
<rect x="2850" y="790" width="28" height="101" fill="#81A9C0"/>
<rect x="2799" y="790" width="28" height="101" fill="#81A9C0"/>
<rect x="2708" y="790" width="28" height="101" fill="#81A9C0"/>
<rect x="2658" y="1062" width="28" height="101" fill="#81A9C0"/>
<rect x="2852" y="1062" width="28" height="101" fill="#81A9C0"/>
<rect x="2801" y="1062" width="28" height="101" fill="#81A9C0"/>
<rect x="2710" y="1062" width="28" height="101" fill="#81A9C0"/>
<rect x="2658" y="926" width="28" height="101" fill="#81A9C0"/>
<rect x="2852" y="926" width="28" height="101" fill="#81A9C0"/>
<rect x="2801" y="926" width="28" height="101" fill="#81A9C0"/>
<rect x="2710" y="926" width="28" height="101" fill="#81A9C0"/>
<rect x="2658" y="926" width="28" height="101" fill="#81A9C0"/>
<rect x="2852" y="926" width="28" height="101" fill="#81A9C0"/>
<rect x="2801" y="926" width="28" height="101" fill="#81A9C0"/>
<rect x="2710" y="926" width="28" height="101" fill="#81A9C0"/>
<rect x="2656" y="1198" width="28" height="101" fill="#81A9C0"/>
<rect x="2850" y="1198" width="28" height="101" fill="#81A9C0"/>
<rect x="2799" y="1198" width="28" height="101" fill="#81A9C0"/>
<rect x="2708" y="1198" width="28" height="101" fill="#81A9C0"/>
<rect x="2656" y="1198" width="28" height="101" fill="#81A9C0"/>
<rect x="2850" y="1198" width="28" height="101" fill="#81A9C0"/>
<rect x="2799" y="1198" width="28" height="101" fill="#81A9C0"/>
<rect x="2708" y="1198" width="28" height="101" fill="#81A9C0"/>
<rect x="1528" y="759.998" width="285" height="631.002" fill="#B94C4C"/>
<rect x="1606.43" y="728" width="129.244" height="31.9981" fill="#B94C4C"/>
<rect x="1558" y="794" width="28" height="101" fill="#AFC8D7"/>
<rect x="1752" y="794" width="28" height="101" fill="#AFC8D7"/>
<rect x="1701" y="794" width="28" height="101" fill="#AFC8D7"/>
<rect x="1610" y="794" width="28" height="101" fill="#AFC8D7"/>
<rect x="1560" y="1066" width="28" height="101" fill="#AFC8D7"/>
<rect x="1754" y="1066" width="28" height="101" fill="#AFC8D7"/>
<rect x="1703" y="1066" width="28" height="101" fill="#AFC8D7"/>
<rect x="1612" y="1066" width="28" height="101" fill="#AFC8D7"/>
<rect x="1560" y="930" width="28" height="101" fill="#AFC8D7"/>
<rect x="1754" y="930" width="28" height="101" fill="#AFC8D7"/>
<rect x="1703" y="930" width="28" height="101" fill="#AFC8D7"/>
<rect x="1612" y="930" width="28" height="101" fill="#AFC8D7"/>
<rect x="1560" y="930" width="28" height="101" fill="#AFC8D7"/>
<rect x="1754" y="930" width="28" height="101" fill="#AFC8D7"/>
<rect x="1703" y="930" width="28" height="101" fill="#AFC8D7"/>
<rect x="1612" y="930" width="28" height="101" fill="#AFC8D7"/>
<rect x="1558" y="1202" width="28" height="101" fill="#AFC8D7"/>
<rect x="1752" y="1202" width="28" height="101" fill="#AFC8D7"/>
<rect x="1701" y="1202" width="28" height="101" fill="#AFC8D7"/>
<rect x="1610" y="1202" width="28" height="101" fill="#AFC8D7"/>
<rect x="1558" y="1202" width="28" height="101" fill="#AFC8D7"/>
<rect x="1752" y="1202" width="28" height="101" fill="#AFC8D7"/>
<rect x="1701" y="1202" width="28" height="101" fill="#AFC8D7"/>
<rect x="1610" y="1202" width="28" height="101" fill="#AFC8D7"/>
<rect x="1894" y="759.998" width="285" height="631.002" fill="#9F5AA5"/>
<rect x="1972.43" y="728" width="129.244" height="31.9981" fill="#9F5AA5"/>
<rect x="1924" y="794" width="28" height="101" fill="#AFC8D7"/>
<rect x="2118" y="794" width="28" height="101" fill="#AFC8D7"/>
<rect x="2067" y="794" width="28" height="101" fill="#AFC8D7"/>
<rect x="1976" y="794" width="28" height="101" fill="#AFC8D7"/>
<rect x="1926" y="1066" width="28" height="101" fill="#AFC8D7"/>
<rect x="2120" y="1066" width="28" height="101" fill="#AFC8D7"/>
<rect x="2069" y="1066" width="28" height="101" fill="#AFC8D7"/>
<rect x="1978" y="1066" width="28" height="101" fill="#AFC8D7"/>
<rect x="1926" y="930" width="28" height="101" fill="#AFC8D7"/>
<rect x="2120" y="930" width="28" height="101" fill="#AFC8D7"/>
<rect x="2069" y="930" width="28" height="101" fill="#AFC8D7"/>
<rect x="1978" y="930" width="28" height="101" fill="#AFC8D7"/>
<rect x="1926" y="930" width="28" height="101" fill="#AFC8D7"/>
<rect x="2120" y="930" width="28" height="101" fill="#AFC8D7"/>
<rect x="2069" y="930" width="28" height="101" fill="#AFC8D7"/>
<rect x="1978" y="930" width="28" height="101" fill="#AFC8D7"/>
<rect x="1924" y="1202" width="28" height="101" fill="#AFC8D7"/>
<rect x="2118" y="1202" width="28" height="101" fill="#AFC8D7"/>
<rect x="2067" y="1202" width="28" height="101" fill="#AFC8D7"/>
<rect x="1976" y="1202" width="28" height="101" fill="#AFC8D7"/>
<rect x="1924" y="1202" width="28" height="101" fill="#AFC8D7"/>
<rect x="2118" y="1202" width="28" height="101" fill="#AFC8D7"/>
<rect x="2067" y="1202" width="28" height="101" fill="#AFC8D7"/>
<rect x="1976" y="1202" width="28" height="101" fill="#AFC8D7"/>
<rect x="2149" y="1032" width="515" height="359" fill="#F3B56D"/>
<rect x="2245" y="798" width="314" height="234" fill="#F3B56D"/>
<rect x="2286" y="616" width="235" height="182" fill="#F3B56D"/>
<rect x="2335" y="469" width="143" height="147" fill="#F3B56D"/>
<rect x="2382" y="329" width="50" height="140" fill="#F3B56D"/>
<rect x="2328" y="652" width="147" height="28" fill="#C4C4C4"/>
<rect x="2328" y="751" width="147" height="28" fill="#C4C4C4"/>
<rect x="2328" y="704" width="147" height="28" fill="#C4C4C4"/>
<rect x="2352" y="493" width="100" height="21.6063" fill="#C4C4C4"/>
<rect x="2352" y="569.394" width="100" height="21.6063" fill="#C4C4C4"/>
<rect x="2352" y="533.126" width="100" height="21.6063" fill="#C4C4C4"/>
<rect x="2289" y="829" width="235" height="37.9213" fill="#C4C4C4"/>
<rect x="2289" y="963.079" width="235" height="37.9213" fill="#C4C4C4"/>
<rect x="2289" y="899.425" width="235" height="37.9213" fill="#C4C4C4"/>
<rect x="2187" y="1065" width="439" height="63.7165" fill="#C4C4C4"/>
<rect x="2187" y="1290.28" width="439" height="63.7165" fill="#C4C4C4"/>
<rect x="2187" y="1183.33" width="439" height="63.7165" fill="#C4C4C4"/>
<rect x="971" y="843" width="480" height="544" fill="white"/>
<rect x="1072" y="437" width="277" height="406" fill="white"/>
<rect x="1130" y="173" width="161" height="264" fill="white"/>
<path d="M1210.5 0L1293.21 178.5H1127.79L1210.5 0Z" fill="white"/>
<rect x="1170" y="212" width="27" height="187" fill="#C4C4C4"/>
<rect x="1225" y="212" width="27" height="187" fill="#C4C4C4"/>
<rect x="1115" y="481" width="41" height="328" fill="#C4C4C4"/>
<rect x="1265" y="481" width="41" height="328" fill="#C4C4C4"/>
<rect x="1190" y="481" width="41" height="328" fill="#C4C4C4"/>
<rect x="1009" y="862" width="45" height="506" fill="#C4C4C4"/>
<rect x="1367" y="862" width="45" height="506" fill="#C4C4C4"/>
<rect x="1278" y="862" width="44" height="506" fill="#C4C4C4"/>
<rect x="1188" y="862" width="45" height="506" fill="#C4C4C4"/>
<rect x="1099" y="862" width="44" height="506" fill="#C4C4C4"/>
</svg>
