<?xml version="1.0" encoding="utf-8"?>
<!-- Generator: Adobe Illustrator 26.2.1, SVG Export Plug-In . SVG Version: 6.00 Build 0)  -->
<svg version="1.1" id="Layer_1" xmlns="http://www.w3.org/2000/svg" xmlns:xlink="http://www.w3.org/1999/xlink" x="0px" y="0px"
	 viewBox="0 0 1920 399.1" style="enable-background:new 0 0 1920 399.1;" xml:space="preserve">
<style type="text/css">
	.st0{fill:#5C5C5C;}
	.st1{fill:#70CD58;}
	.st2{fill:#FFFFFF;}
	.st3{fill:#815959;}
	.st4{fill:#408D43;}
	.st5{fill:#37B93C;}
</style>
<rect y="279.1" class="st0" width="1920" height="107"/>
<rect y="266" class="st1" width="1920" height="13.1"/>
<rect y="386" class="st1" width="1920" height="13.1"/>
<rect x="54" y="323.6" class="st2" width="101" height="9.2"/>
<rect x="54" y="323.6" class="st2" width="101" height="9.2"/>
<rect x="54" y="323.6" class="st2" width="101" height="9.2"/>
<rect x="54" y="323.6" class="st2" width="101" height="9.2"/>
<rect x="223" y="323.6" class="st2" width="101" height="9.2"/>
<rect x="223" y="323.6" class="st2" width="101" height="9.2"/>
<rect x="223" y="323.6" class="st2" width="101" height="9.2"/>
<rect x="223" y="323.6" class="st2" width="101" height="9.2"/>
<rect x="392" y="323.6" class="st2" width="101" height="9.2"/>
<rect x="392" y="323.6" class="st2" width="101" height="9.2"/>
<rect x="392" y="323.6" class="st2" width="101" height="9.2"/>
<rect x="392" y="323.6" class="st2" width="101" height="9.2"/>
<rect x="561" y="323.6" class="st2" width="101" height="9.2"/>
<rect x="561" y="323.6" class="st2" width="101" height="9.2"/>
<rect x="561" y="323.6" class="st2" width="101" height="9.2"/>
<rect x="561" y="323.6" class="st2" width="101" height="9.2"/>
<rect x="730" y="323.6" class="st2" width="101" height="9.2"/>
<rect x="730" y="323.6" class="st2" width="101" height="9.2"/>
<rect x="730" y="323.6" class="st2" width="101" height="9.2"/>
<rect x="730" y="323.6" class="st2" width="101" height="9.2"/>
<rect x="899" y="323.6" class="st2" width="101" height="9.2"/>
<rect x="899" y="323.6" class="st2" width="101" height="9.2"/>
<rect x="899" y="323.6" class="st2" width="101" height="9.2"/>
<rect x="899" y="323.6" class="st2" width="101" height="9.2"/>
<rect x="1068" y="323.6" class="st2" width="101" height="9.2"/>
<rect x="1068" y="323.6" class="st2" width="101" height="9.2"/>
<rect x="1068" y="323.6" class="st2" width="101" height="9.2"/>
<rect x="1068" y="323.6" class="st2" width="101" height="9.2"/>
<rect x="1237" y="323.6" class="st2" width="101" height="9.2"/>
<rect x="1237" y="323.6" class="st2" width="101" height="9.2"/>
<rect x="1237" y="323.6" class="st2" width="101" height="9.2"/>
<rect x="1237" y="323.6" class="st2" width="101" height="9.2"/>
<rect x="1406" y="323.6" class="st2" width="101" height="9.2"/>
<rect x="1406" y="323.6" class="st2" width="101" height="9.2"/>
<rect x="1406" y="323.6" class="st2" width="101" height="9.2"/>
<rect x="1406" y="323.6" class="st2" width="101" height="9.2"/>
<rect x="1575" y="323.6" class="st2" width="101" height="9.2"/>
<rect x="1575" y="323.6" class="st2" width="101" height="9.2"/>
<rect x="1575" y="323.6" class="st2" width="101" height="9.2"/>
<rect x="1575" y="323.6" class="st2" width="101" height="9.2"/>
<rect x="1744" y="323.6" class="st2" width="101" height="9.2"/>
<rect x="1744" y="323.6" class="st2" width="101" height="9.2"/>
<rect x="1744" y="323.6" class="st2" width="101" height="9.2"/>
<rect x="1744" y="323.6" class="st2" width="101" height="9.2"/>
<rect x="162" y="136" class="st3" width="20" height="130"/>
<circle class="st4" cx="172" cy="75" r="75"/>
<ellipse class="st5" cx="163.5" cy="80.5" rx="66.5" ry="69.5"/>
<rect x="442.3" y="213.8" class="st3" width="9.3" height="54.2"/>
<ellipse class="st4" cx="447" cy="188.3" rx="35" ry="31.3"/>
<ellipse class="st5" cx="443" cy="190.6" rx="31" ry="29"/>
<rect x="1526.8" y="206.4" class="st3" width="11.3" height="62.6"/>
<ellipse class="st4" cx="1532.5" cy="177.1" rx="42.5" ry="36.1"/>
<ellipse class="st5" cx="1527.7" cy="179.7" rx="37.7" ry="33.4"/>
<rect x="1119.3" y="158.5" class="st3" width="16.4" height="110.5"/>
<ellipse class="st4" cx="1127.5" cy="106.7" rx="61.5" ry="63.7"/>
<ellipse class="st5" cx="1120.5" cy="111.4" rx="54.5" ry="59"/>
<rect x="1320.8" y="198.9" class="st3" width="13.5" height="84.1"/>
<ellipse class="st4" cx="1327.5" cy="159.5" rx="50.5" ry="48.5"/>
<ellipse class="st5" cx="1321.8" cy="163.1" rx="44.8" ry="44.9"/>
<rect x="1779.6" y="176.2" class="st3" width="16.8" height="94.8"/>
<ellipse class="st4" cx="1788" cy="131.7" rx="63" ry="54.7"/>
<ellipse class="st5" cx="1780.9" cy="135.7" rx="55.9" ry="50.7"/>
<rect x="1640" y="138" class="st3" width="20" height="130"/>
<circle class="st4" cx="1650" cy="77" r="75"/>
<ellipse class="st5" cx="1641.5" cy="82.5" rx="66.5" ry="69.5"/>
<rect x="1422" y="136" class="st3" width="20" height="130"/>
<circle class="st4" cx="1432" cy="75" r="75"/>
<ellipse class="st5" cx="1423.5" cy="80.5" rx="66.5" ry="69.5"/>
<rect x="1216" y="136" class="st3" width="20" height="130"/>
<circle class="st4" cx="1226" cy="75" r="75"/>
<ellipse class="st5" cx="1217.5" cy="80.5" rx="66.5" ry="69.5"/>
<rect x="951.6" y="172.7" class="st3" width="16.8" height="93.3"/>
<ellipse class="st4" cx="960" cy="128.9" rx="63" ry="53.9"/>
<ellipse class="st5" cx="952.9" cy="132.8" rx="55.9" ry="49.9"/>
<rect x="245.7" y="176.6" class="st3" width="14.7" height="89.4"/>
<ellipse class="st4" cx="253" cy="134.6" rx="55" ry="51.6"/>
<ellipse class="st5" cx="246.8" cy="138.4" rx="48.8" ry="47.8"/>
<rect x="826.5" y="195.9" class="st3" width="14" height="81.1"/>
<ellipse class="st4" cx="833.5" cy="157.8" rx="52.5" ry="46.8"/>
<ellipse class="st5" cx="827.5" cy="161.2" rx="46.5" ry="43.4"/>
<rect x="358" y="147" class="st3" width="20" height="130"/>
<circle class="st4" cx="368" cy="86" r="75"/>
<ellipse class="st5" cx="359.5" cy="91.5" rx="66.5" ry="69.5"/>
<rect x="614" y="141.4" class="st3" width="19.1" height="124.6"/>
<ellipse class="st4" cx="623.5" cy="82.9" rx="71.5" ry="71.9"/>
<ellipse class="st5" cx="615.4" cy="88.2" rx="63.4" ry="66.6"/>
<rect x="551.9" y="172.7" class="st3" width="18.1" height="93.3"/>
<ellipse class="st4" cx="561" cy="128.9" rx="68" ry="53.9"/>
<ellipse class="st5" cx="553.3" cy="132.8" rx="60.3" ry="49.9"/>
</svg>
