<svg width="1751" height="1047" viewBox="0 0 1751 1047" fill="none" xmlns="http://www.w3.org/2000/svg">
<path d="M102 87L106.041 100.129H119.119L108.539 108.243L112.58 121.371L102 113.257L91.4199 121.371L95.4611 108.243L84.881 100.129H97.9587L102 87Z" fill="#FFFB8F"/>
<path d="M1610 75L1616.06 92.2746H1635.68L1619.81 102.951L1625.87 120.225L1610 109.549L1594.13 120.225L1600.19 102.951L1584.32 92.2746H1603.94L1610 75Z" fill="#FFFB8F"/>
<path d="M50 718L61.2257 752.549H97.5528L68.1636 773.902L79.3893 808.451L50 787.098L20.6107 808.451L31.8364 773.902L2.44717 752.549H38.7743L50 718Z" fill="#FFFB8F"/>
<path d="M1111 0L1122.23 34.5491H1158.55L1129.16 55.9017L1140.39 90.4509L1111 69.0983L1081.61 90.4509L1092.84 55.9017L1063.45 34.5491H1099.77L1111 0Z" fill="#FFFB8F"/>
<path d="M1165.5 668L1170.78 685.275H1187.85L1174.04 695.951L1179.31 713.225L1165.5 702.549L1151.69 713.225L1156.96 695.951L1143.15 685.275H1160.22L1165.5 668Z" fill="#FFFB8F"/>
<path d="M1490 371L1501.23 405.549H1537.55L1508.16 426.902L1519.39 461.451L1490 440.098L1460.61 461.451L1471.84 426.902L1442.45 405.549H1478.77L1490 371Z" fill="#FFFB8F"/>
<path d="M581.5 668L590.144 692.875H618.116L595.486 708.249L604.13 733.125L581.5 717.751L558.87 733.125L567.514 708.249L544.884 692.875H572.856L581.5 668Z" fill="#FFFB8F"/>
<path d="M1715.5 818L1723.47 842.184L1749.26 842.184L1728.4 857.131L1736.37 881.316L1715.5 866.369L1694.63 881.316L1702.6 857.131L1681.74 842.184L1707.53 842.184L1715.5 818Z" fill="#FFFB8F"/>
<path d="M485.5 56L491.674 73.2746H511.654L495.49 83.9508L501.664 101.225L485.5 90.5491L469.336 101.225L475.51 83.9508L459.346 73.2746H479.326L485.5 56Z" fill="#FFFB8F"/>
<path d="M524 583L530.511 604.42H551.581L534.535 617.659L541.046 639.08L524 625.841L506.954 639.08L513.465 617.659L496.419 604.42H517.489L524 583Z" fill="#FFFB8F"/>
<path d="M1361.88 409.023L1323.84 328.825L1310.98 336.201L1361.88 409.023Z" fill="#853692"/>
<path d="M1202.3 432.833L1209.73 344.487H1194.88L1202.3 432.833Z" fill="#853692"/>
<path d="M1047.59 409.982L1098.49 337.16L1085.63 329.784L1047.59 409.982Z" fill="#853692"/>
<ellipse cx="1201.56" cy="200.763" rx="22.6786" ry="18.4315" fill="#8B5994"/>
<ellipse cx="1204.45" cy="200.763" rx="19.7922" ry="18.4315" fill="#853692"/>
<ellipse cx="1199.5" cy="267.936" rx="89.0649" ry="69.2206" fill="#7EEFFF"/>
<ellipse cx="1199.5" cy="267.936" rx="89.0649" ry="69.2206" fill="#7EEFFF"/>
<ellipse cx="1199.5" cy="267.936" rx="89.0649" ry="69.2206" fill="#BDF5FD"/>
<ellipse cx="1211.46" cy="267.936" rx="77.1071" ry="69.2206" fill="#7EEFFF"/>
<ellipse cx="1211.46" cy="267.936" rx="77.1071" ry="69.2206" fill="#7EEFFF"/>
<ellipse cx="1211.46" cy="267.936" rx="77.1071" ry="69.2206" fill="#7EEFFF"/>
<ellipse cx="1199.5" cy="310.942" rx="190.5" ry="36.0438" fill="#E096E7"/>
<ellipse cx="1220.53" cy="310.942" rx="169.471" ry="36.0438" fill="#D976E1"/>
<ellipse cx="1095.59" cy="310.533" rx="14.8442" ry="13.5164" fill="#BFD1CF"/>
<ellipse cx="1098.06" cy="310.533" rx="12.3701" ry="13.5164" fill="#3FD9C6"/>
<ellipse cx="1303.41" cy="310.533" rx="14.8442" ry="13.5164" fill="#BFD1CF"/>
<ellipse cx="1305.47" cy="310.533" rx="12.7825" ry="13.5164" fill="#3FD9C6"/>
<ellipse cx="1199.5" cy="310.533" rx="14.8442" ry="13.5164" fill="#BFD1CF"/>
<ellipse cx="1201.56" cy="310.533" rx="12.7825" ry="13.5164" fill="#3FD9C6"/>
<rect x="1200.32" y="146.288" width="2.47403" height="36.0438" fill="#C4C4C4"/>
<ellipse cx="1201.56" cy="140.144" rx="6.18506" ry="6.14384" fill="#61ECFF"/>
<ellipse cx="1047.35" cy="407.196" rx="6.18506" ry="6.14384" fill="#61ECFF"/>
<ellipse cx="1358.25" cy="407.196" rx="6.18506" ry="6.14384" fill="#61ECFF"/>
<ellipse cx="1202.39" cy="426.856" rx="6.18506" ry="6.14384" fill="#61ECFF"/>
<circle cx="573" cy="430" r="125" fill="#BAFFB4"/>
<ellipse cx="581" cy="430" rx="117" ry="125" fill="#89FC7F"/>
<circle cx="498" cy="360" r="5" fill="#096B00"/>
<circle cx="520.5" cy="357.5" r="7.5" fill="#096B00"/>
<circle cx="510" cy="382" r="10" fill="#096B00"/>
<circle cx="495.5" cy="474.5" r="12.5" fill="#096B00"/>
<circle cx="637" cy="451" r="5" fill="#096B00"/>
<circle cx="660" cy="387" r="15" fill="#096B00"/>
<circle cx="664.5" cy="441.5" r="7.5" fill="#096B00"/>
<circle cx="632.5" cy="421.5" r="12.5" fill="#096B00"/>
<circle cx="528" cy="492" r="10" fill="#096B00"/>
<circle cx="533" cy="511" r="5" fill="#096B00"/>
<path d="M874.979 674.599L914.247 688.142L885.767 730L815 695.528L874.979 674.599Z" fill="#515151"/>
<path d="M826.219 659.415L882.747 643L874.548 675.009L816.726 695.528L826.219 659.415Z" fill="#3D3D3D"/>
<path d="M881.021 643L923.74 654.901L914.247 689.373L871.527 675.83L881.021 643Z" fill="#706C6C"/>
<path d="M923.74 653.67L939.274 697.17L912.521 689.373L923.74 653.67Z" fill="#ABA9A9"/>
<path d="M912.521 688.142L941 697.17L885.767 730L912.521 688.142Z" fill="#706C6C"/>
<path d="M770.771 730.149L762.685 755.591L710.732 757.435L736.565 707.63L770.771 730.149Z" fill="#515151"/>
<path d="M778.985 699.196L807.52 721.719L770.234 730.089L736.876 708.514L778.985 699.196Z" fill="#3D3D3D"/>
<path d="M807.209 720.835L801.58 747.402L761.307 756.075L768.772 728.863L807.209 720.835Z" fill="#706C6C"/>
<path d="M802.958 746.918L757.087 771.963L760.997 755.19L802.958 746.918Z" fill="#ABA9A9"/>
<path d="M762.374 754.707L757.397 772.848L710.732 757.435L762.374 754.707Z" fill="#706C6C"/>
<path d="M830.781 736.23L860.467 769.415L828.142 789.653L804.009 768.722L830.781 736.23Z" fill="#6B6262"/>
<path d="M863.39 739.039L872.952 750.864L860.009 769.214L830.781 736.23L863.39 739.039Z" fill="#968888"/>
<path d="M872.494 750.663L868.596 788.254L860.21 768.756L872.494 750.663Z" fill="#C4C4C4"/>
<path d="M860.21 768.756L868.596 788.254L827.025 789.71L860.21 768.756Z" fill="#505050"/>
<path d="M1370.18 977.074L1355.63 943.959L1386.83 929.44L1409.02 996.624L1370.18 977.074Z" fill="#515151"/>
<path d="M1388.89 1016.98L1353.61 996.084L1370.56 977.021L1408.14 995.612L1388.89 1016.98Z" fill="#3D3D3D"/>
<path d="M1354.48 997.095L1337.53 963.182L1356.12 943.041L1372.42 978.179L1354.48 997.095Z" fill="#706C6C"/>
<path d="M1337.03 964.1L1346.52 922.558L1357 944.053L1337.03 964.1Z" fill="#ABA9A9"/>
<path d="M1356.51 944.971L1345.64 921.546L1386.83 929.44L1356.51 944.971Z" fill="#706C6C"/>
<path d="M1445.33 996.733L1459.6 982.501L1486.74 1011.58L1453.72 1033.57L1445.33 996.733Z" fill="#515151"/>
<path d="M1428.79 1015L1423.28 981.479L1445.58 997.092L1453.91 1032.73L1428.79 1015Z" fill="#3D3D3D"/>
<path d="M1423.09 982.32L1436.56 965.809L1460.5 982.948L1445.83 998.863L1423.09 982.32Z" fill="#706C6C"/>
<path d="M1435.67 965.362L1468.99 973.574L1460.3 983.789L1435.67 965.362Z" fill="#ABA9A9"/>
<path d="M1459.41 983.343L1469.18 972.732L1486.74 1011.58L1459.41 983.343Z" fill="#706C6C"/>
<path d="M1417.26 957.024L1415.43 914.879L1439.94 918.735L1443.85 948.488L1417.26 957.024Z" fill="#6B6262"/>
<path d="M1401.81 935.816L1401.67 921.394L1415.58 915.297L1417.26 957.024L1401.81 935.816Z" fill="#968888"/>
<path d="M1401.83 921.812L1418.82 896.066L1415.3 915.521L1401.83 921.812Z" fill="#C4C4C4"/>
<path d="M1415.3 915.521L1418.82 896.066L1440.53 919.347L1415.3 915.521Z" fill="#505050"/>
<path d="M1502.05 113.87L1523.13 136.413L1483.56 149.231L1450.31 102.924L1502.05 113.87Z" fill="#515151"/>
<path d="M1475.11 86.799L1522.33 98.9832L1501.56 113.938L1451.51 103.579L1475.11 86.799Z" fill="#3D3D3D"/>
<path d="M1521.12 98.3283L1545.38 121.254L1522.55 137.107L1499.06 113.255L1521.12 98.3283Z" fill="#706C6C"/>
<path d="M1545.96 120.559L1536.38 151.004L1521.35 136.452L1545.96 120.559Z" fill="#ABA9A9"/>
<path d="M1521.93 135.758L1537.59 151.659L1483.56 149.231L1521.93 135.758Z" fill="#706C6C"/>
<path d="M1403.13 105.681L1385.53 116.972L1348.35 98.2995L1389.81 79.9924L1403.13 105.681Z" fill="#515151"/>
<path d="M1423.41 91.3287L1432.77 114.867L1402.79 105.443L1389.61 80.6095L1423.41 91.3287Z" fill="#3D3D3D"/>
<path d="M1432.97 114.25L1416.56 127.108L1384.34 116.722L1402.34 104.197L1432.97 114.25Z" fill="#706C6C"/>
<path d="M1417.75 127.358L1373.92 124.088L1384.54 116.105L1417.75 127.358Z" fill="#ABA9A9"/>
<path d="M1385.73 116.355L1373.72 124.705L1348.35 98.2995L1385.73 116.355Z" fill="#706C6C"/>
<path d="M1442.21 131.883L1447.37 161.876L1415.27 161.032L1408.24 140.063L1442.21 131.883Z" fill="#6B6262"/>
<path d="M1463.68 145.841L1464.81 156.143L1447.14 161.589L1442.21 131.883L1463.68 145.841Z" fill="#968888"/>
<path d="M1464.58 155.856L1444.2 175.593L1447.5 161.406L1464.58 155.856Z" fill="#C4C4C4"/>
<path d="M1447.5 161.406L1444.2 175.593L1414.46 160.641L1447.5 161.406Z" fill="#505050"/>
<circle cx="302" cy="244" r="80" fill="#FFBA7B"/>
<ellipse cx="306.5" cy="244" rx="75.5" ry="80" fill="#FFAD61"/>
<ellipse cx="305" cy="173.5" rx="17" ry="9.5" fill="#EB8323"/>
<path d="M349 251C349 259.837 341.389 267 332 267C322.611 267 315 259.837 315 251C315 242.163 322.611 235 332 235C341.389 235 349 242.163 349 251Z" fill="#EB8323"/>
<path d="M321.5 246.695C321.5 257.74 312.546 266.695 301.5 266.695C290.454 266.695 281.5 257.74 281.5 246.695C281.5 235.649 290.454 226.695 301.5 226.695C312.546 226.695 321.5 235.649 321.5 246.695Z" fill="#EB8323"/>
<path d="M369.454 201.588C374.425 210.198 374.771 219.304 370.227 221.927C365.683 224.55 357.971 219.698 353 211.088C348.029 202.479 347.683 193.373 352.227 190.75C356.771 188.127 364.484 192.979 369.454 201.588Z" fill="#EB8323"/>
<path d="M341 309C341 312.314 337.194 315 332.5 315C327.806 315 324 312.314 324 309C324 305.686 327.806 303 332.5 303C337.194 303 341 305.686 341 309Z" fill="#EB8323"/>
<path d="M352 205C352 209.418 348.418 213 344 213C339.582 213 336 209.418 336 205C336 200.582 339.582 197 344 197C348.418 197 352 200.582 352 205Z" fill="#EB8323"/>
<path d="M355 295C355 300.523 348.956 305 341.5 305C334.044 305 328 300.523 328 295C328 289.477 334.044 285 341.5 285C348.956 285 355 289.477 355 295Z" fill="#EB8323"/>
<path d="M302.224 192C302.224 203.046 293.269 212 282.224 212C271.178 212 262.224 203.046 262.224 192C262.224 180.954 271.178 172 282.224 172C293.269 172 302.224 180.954 302.224 192Z" fill="#EB8323"/>
<circle cx="282" cy="275" r="20" fill="#EB8323"/>
<ellipse cx="250.5" cy="264.5" rx="16.5" ry="20.5" fill="#EB8323"/>
<path d="M208.09 810.823L308.289 846.86L262.225 939.533L192.149 916.591L208.09 810.823Z" fill="white"/>
<path d="M317.097 825.822C305.216 864.175 271.91 888.026 242.704 879.093C213.499 870.161 199.455 831.828 211.335 793.475C223.216 755.122 273.044 695.882 302.249 704.815C331.454 713.747 328.978 787.469 317.097 825.822Z" fill="white"/>
<path d="M312.757 677.456L325.525 748.853L255.093 725.989L312.757 677.456Z" fill="#F88787"/>
<path d="M214.63 816.035L308.757 850.187L264.658 941.177L198.912 918.608L214.63 816.035Z" fill="#EBEBEB"/>
<path d="M317.965 829.525C306.277 867.114 274.401 890.764 246.768 882.35C219.135 873.936 206.208 836.643 217.896 799.055C229.583 761.466 277.522 703.073 305.155 711.488C332.788 719.902 329.652 791.937 317.965 829.525Z" fill="#EBEBEB"/>
<path d="M314.476 686.929L325.841 748.988L264.082 728.76L314.476 686.929Z" fill="#F04848"/>
<path d="M287.886 813.334C274.912 822.228 257.894 818.669 249.857 805.462C241.82 792.256 245.761 774.327 258.735 765.432C271.709 756.538 288.727 760.097 296.764 773.304C304.801 786.51 300.86 804.44 287.886 813.334Z" fill="#C4C4C4" stroke="#545353" stroke-width="4"/>
<path d="M281.484 803.117C274.056 808.209 264.329 806.163 259.742 798.625C255.155 791.087 257.397 780.835 264.825 775.743C272.253 770.65 281.98 772.697 286.567 780.235C291.154 787.773 288.912 798.024 281.484 803.117Z" fill="#46C3D5" stroke="#545353" stroke-width="4"/>
<path d="M251.983 863.547L250.506 936.624L210.22 985.209L209.378 922.506L251.983 863.547Z" fill="#C4C4C4"/>
<path d="M294.779 878.238L288.856 949.788L257.462 1001.43L262.178 940.631L294.779 878.238Z" fill="#C4C4C4"/>
<path d="M203.074 846.758L198.262 918.69L162.422 968.801L170.473 909.151L203.074 846.758Z" fill="#C4C4C4"/>
</svg>
