<svg width="179" height="109" viewBox="0 0 179 109" fill="none" xmlns="http://www.w3.org/2000/svg">
<path d="M99.3806 96.8969C85.8806 108.897 79.8806 111.897 64.3806 101.897C54.3806 105.397 50.8806 108.897 40.3806 96.8969C27.8806 101.897 24.3806 96.8969 20.8806 89.8969C9.38056 89.8969 5.88056 85.8969 5.88056 76.3969C-1.61946 68.3969 -0.619457 61.8485 9.88054 54.3969C0.880554 42.3969 9.88054 35.8969 17.8805 32.8969C20.8806 22.8969 20.8806 19.8969 32.8806 17.3969C36.8806 7.39691 46.3806 7.39691 52.3806 14.3969C58.3806 2.89686 67.3806 2.89685 77.8806 7.39691C86.8806 -2.10309 95.3806 -0.103092 102.88 7.39691C113.103 2.89685 115.38 1.89691 121.881 7.39691C135.88 2.89685 137.88 2.89686 148.38 14.3969C161.38 11.3969 166.381 19.3969 167.881 27.8968C177.881 32.8969 179.881 40.8969 175.381 50.3969C178.881 60.3969 179.381 68.8969 166.381 73.3969C166.381 81.3969 166.381 89.8969 155.881 89.8969C149.88 99.397 144.381 101.897 133.381 96.8969C117.881 107.897 108.881 106.897 99.3806 96.8969Z" fill="white" stroke="black"/>
</svg>
