<svg width="461" height="204" viewBox="0 0 461 204" fill="none" xmlns="http://www.w3.org/2000/svg">
<path d="M98.722 151.75C86.0553 160.75 67.9996 162.25 62.4996 148.25C53.9996 156.75 44.9997 156.75 38.4997 148.25C27.4997 156.75 10.9997 156.75 10.9997 138.75C-3.50034 130.25 -2.00031 121.75 13.9997 110.75C22.9997 97.2501 26.4997 99.25 38.4997 103.601C47.4997 94.7499 55.4996 94.7499 67.9996 103.601C76.4996 94.7499 82.4998 94.7499 94.9998 103.601C102.5 91.6015 108.5 87.75 120 94.7499C120 80.75 122.119 74.1013 138 69.6014C145 56.1013 149.38 54.6015 157.88 57.6015C160.88 41.1015 170.38 33.1014 185.38 33.1014C189.38 16.1014 195 12.2501 207 7.74999C210 -1.25 223.5 -1.25 229 7.74999C241.88 7.74999 241.88 7.75 241.88 16.1014C251.38 16.1014 258.88 20.1014 258.88 33.1014C270.38 38.1014 275.38 37.1014 275.38 51.6014C291.38 56.6014 292.88 56.6014 298.38 69.6014C318.381 76.7502 324.381 103.601 318.381 116.75C322.881 133.75 325.381 138.75 308.881 148.25C308.881 161.75 302.381 171.75 286.881 161.75C274.881 170.75 264.277 171.75 253.277 161.75C245.277 176.75 226.778 174.75 221.777 161.75C208.778 167.75 201.277 173.75 190 156.75C178 165.75 173 166.75 162 156.75C154 171.75 135.5 169.75 130.5 156.75C117.5 162.75 110 168.75 98.722 151.75Z" fill="white" stroke="black"/>
<path d="M423.927 192.643C410.427 204.643 409.546 206.643 394.046 196.643C384.046 200.143 371.926 208.643 361.426 196.643C352.427 204.143 336.427 199.643 332.927 192.643C321.926 202.143 304.427 204.143 297.926 192.643C287.927 202.643 269.307 202.143 269.307 192.643C250.427 188.643 250.427 179.143 254.927 170.143C245.927 160.143 245.427 152.268 254.927 145.143C241.927 138.143 236.427 121.143 245.427 112.143C241.927 102.643 254.927 94.1432 263.927 96.1433C273.927 88.6433 285.927 85.6433 297.926 94.1432C309.807 88.6432 317.926 94.1432 321.926 101.143C330.926 91.6432 337.426 93.6432 344.926 101.143C344.926 90.1432 356.926 87.466 361.426 94.1432C366.926 88.6432 379.426 88.6432 379.426 101.143C392.426 98.1432 402.927 114.643 394.927 125.643C404.927 130.643 405.427 137.143 399.927 145.143C409.427 141.143 423.927 150.143 423.927 158.143C423.927 166.143 435.427 153.643 444.927 160.143C460.427 158.143 465.427 177.643 453.927 183.643C457.427 197.643 433.427 205.143 423.927 192.643Z" fill="white" stroke="black"/>
</svg>
