<svg width="383" height="175" viewBox="0 0 383 175" fill="none" xmlns="http://www.w3.org/2000/svg">
<path d="M303.381 103.897C289.881 115.897 283.881 118.897 268.381 108.897C258.381 112.397 254.881 115.897 244.381 103.897C231.881 108.897 228.381 103.897 224.881 96.8969C213.381 96.8969 209.881 92.8969 209.881 83.3969C202.381 75.3969 203.381 68.8485 213.881 61.3969C204.881 49.3969 213.881 42.8969 221.881 39.8969C224.881 29.8969 224.881 26.8969 236.881 24.3969C240.881 14.3969 250.381 14.3969 256.381 21.3969C262.381 9.89686 271.381 9.89685 281.881 14.3969C290.881 4.89691 299.381 6.89691 306.88 14.3969C317.103 9.89685 319.38 8.89691 325.881 14.3969C339.88 9.89685 341.88 9.89686 352.38 21.3969C365.38 18.3969 370.381 26.3969 371.881 34.8968C381.881 39.8969 383.881 47.8969 379.381 57.3969C382.881 67.3969 383.381 75.8969 370.381 80.3969C370.381 88.3969 370.381 96.8969 359.881 96.8969C353.88 106.397 348.381 108.897 337.381 103.897C321.881 114.897 312.881 113.897 303.381 103.897Z" fill="white" stroke="black"/>
<path d="M163.614 156.169C141.3 175.586 131.382 180.44 105.762 164.259C89.2331 169.923 83.448 175.586 66.0924 156.169C45.4311 164.259 39.6459 156.169 33.8607 144.842C14.8523 144.842 9.06711 138.37 9.06711 122.998C-3.32972 110.054 -1.67681 99.4579 15.6787 87.4006C0.802567 67.9836 15.6787 57.4661 28.902 52.6118C33.8607 36.431 33.8607 31.5767 53.6956 27.5315C60.3072 11.3507 76.0099 11.3507 85.9273 22.6772C95.8447 4.06927 110.721 4.06927 128.076 11.3507C142.953 -4.02106 157.002 -0.784892 169.399 11.3507C186.296 4.06927 190.06 2.45127 200.805 11.3507C223.945 4.06927 227.251 4.06927 244.606 22.6772C266.094 17.8231 274.359 30.7677 276.838 44.5212C293.367 52.6118 296.673 65.5565 289.235 80.9283C295.02 97.1091 295.847 110.863 274.359 118.144C274.359 131.089 274.359 144.842 257.003 144.842C247.085 160.214 237.995 164.259 219.813 156.169C194.193 173.968 179.317 172.35 163.614 156.169Z" fill="white" stroke="black"/>
</svg>
