<svg width="467" height="237" viewBox="0 0 467 237" fill="none" xmlns="http://www.w3.org/2000/svg">
<path d="M82.3808 198.851C70.3807 198.851 58.3806 188.351 64.3806 175.351C54.3806 178.851 50.8806 182.351 40.3806 170.351C27.8806 175.351 24.3806 170.351 20.8806 163.351C9.38056 163.351 5.88056 159.351 5.88056 149.851C-1.61946 141.851 -0.619457 135.303 9.88054 127.851C0.880554 115.851 9.88054 109.351 17.8805 106.351C20.8806 96.3514 20.8806 93.3514 32.8806 90.8514C36.8806 80.8514 46.3806 80.8514 52.3806 87.8513C58.3806 76.3513 67.3806 76.3513 77.8806 80.8514C86.8806 71.3514 95.3806 73.3514 102.88 80.8514C113.103 76.3513 115.38 75.3514 121.881 80.8514C121.881 69.3514 135.881 61.8514 144.381 61.8514C151.381 48.3513 157.881 51.3514 166.381 54.3514C169.381 37.8514 178.881 29.8513 193.881 29.8513C197.881 12.8513 196.881 17.3514 208.881 12.8513C211.881 3.85132 213.881 -3.14863 228.881 3.85132C244.881 -1.14868 243.381 0.85137 250.381 12.8513C259.881 12.8513 267.381 16.8513 267.381 29.8513C278.881 34.8513 283.881 33.8513 283.881 48.3513C299.881 53.3513 301.381 53.3513 306.881 66.3513C323.881 66.3513 328.381 66.3513 335.881 76.3513C352.881 76.3513 359.381 76.3513 369.381 87.8513C385.381 87.8513 384.381 83.8513 399.881 96.3513C408.881 92.3513 423.881 86.8513 434.381 103.351C445.881 105.851 445.881 105.851 448.881 117.351C460.881 124.351 460.881 127.351 460.881 138.851C466.881 146.851 468.381 153.851 460.881 165.851C470.381 174.851 464.881 187.851 456.381 187.851C456.381 198.851 452.881 208.351 434.381 208.351C429.381 220.851 418.881 225.851 399.881 220.851C384.381 231.851 374.381 230.851 364.881 220.851C351.381 232.851 339.381 235.851 323.881 225.851C306.381 233.851 305.381 236.351 288.881 229.351C273.381 240.351 259.881 235.851 250.381 225.851C236.881 237.851 226.881 239.851 208.881 225.851C196.881 234.851 186.381 235.851 175.381 225.851C167.381 240.851 149.381 238.851 144.381 225.851C131.381 231.851 124.381 232.851 113.103 215.851C100.436 224.851 82.3808 215.851 82.3808 198.851Z" fill="white"/>
<path d="M64.3806 175.351C58.3806 188.351 70.3807 198.851 82.3808 198.851C82.3808 215.851 100.436 224.851 113.103 215.851C124.381 232.851 131.381 231.851 144.381 225.851C149.381 238.851 167.381 240.851 175.381 225.851C186.381 235.851 196.881 234.851 208.881 225.851C226.881 239.851 236.881 237.851 250.381 225.851C259.881 235.851 273.381 240.351 288.881 229.351C305.381 236.351 306.381 233.851 323.881 225.851C339.381 235.851 351.381 232.851 364.881 220.851C374.381 230.851 384.381 231.851 399.881 220.851C418.881 225.851 429.381 220.851 434.381 208.351C452.881 208.351 456.381 198.851 456.381 187.851C464.881 187.851 470.381 174.851 460.881 165.851C468.381 153.851 466.881 146.851 460.881 138.851C460.881 127.351 460.881 124.351 448.881 117.351C445.881 105.851 445.881 105.851 434.381 103.351C423.881 86.8513 408.881 92.3513 399.881 96.3513C384.381 83.8513 385.381 87.8513 369.381 87.8513C359.381 76.3513 352.881 76.3513 335.881 76.3513C328.381 66.3513 323.881 66.3513 306.881 66.3513C301.381 53.3513 299.881 53.3513 283.881 48.3513C283.881 33.8513 278.881 34.8513 267.381 29.8513C267.381 16.8513 259.881 12.8513 250.381 12.8513C243.381 0.85137 244.881 -1.14868 228.881 3.85132C213.881 -3.14863 211.881 3.85132 208.881 12.8513C196.881 17.3514 197.881 12.8513 193.881 29.8513C178.881 29.8513 169.381 37.8514 166.381 54.3514C157.881 51.3514 151.381 48.3513 144.381 61.8514C135.881 61.8514 121.881 69.3514 121.881 80.8514M64.3806 175.351C79.8806 185.351 85.8806 182.351 99.3806 170.351C108.881 180.351 117.881 181.351 133.381 170.351C144.381 175.351 149.88 172.851 155.881 163.351C166.381 163.351 166.381 154.851 166.381 146.851C179.381 142.351 178.881 133.851 175.381 123.851C179.881 114.351 177.881 106.351 167.881 101.351C166.381 92.8514 161.38 84.8514 148.38 87.8513C137.88 76.3513 135.88 76.3513 121.881 80.8514M64.3806 175.351C54.3806 178.851 50.8806 182.351 40.3806 170.351C27.8806 175.351 24.3806 170.351 20.8806 163.351C9.38056 163.351 5.88056 159.351 5.88056 149.851C-1.61946 141.851 -0.619457 135.303 9.88054 127.851C0.880554 115.851 9.88054 109.351 17.8805 106.351C20.8806 96.3514 20.8806 93.3514 32.8806 90.8514C36.8806 80.8514 46.3806 80.8514 52.3806 87.8513C58.3806 76.3513 67.3806 76.3513 77.8806 80.8514C86.8806 71.3514 95.3806 73.3514 102.88 80.8514C113.103 76.3513 115.38 75.3514 121.881 80.8514" stroke="black"/>
</svg>
