<svg width="1920" height="541" viewBox="0 0 1920 541" fill="none" xmlns="http://www.w3.org/2000/svg">
<rect y="293" width="1920" height="221" fill="#5C5C5C"/>
<rect y="266" width="1920" height="27" fill="#70CD58"/>
<rect y="514" width="1920" height="27" fill="#70CD58"/>
<rect x="54" y="385" width="101" height="19" fill="white"/>
<rect x="54" y="385" width="101" height="19" fill="white"/>
<rect x="54" y="385" width="101" height="19" fill="white"/>
<rect x="54" y="385" width="101" height="19" fill="white"/>
<rect x="223" y="385" width="101" height="19" fill="white"/>
<rect x="223" y="385" width="101" height="19" fill="white"/>
<rect x="223" y="385" width="101" height="19" fill="white"/>
<rect x="223" y="385" width="101" height="19" fill="white"/>
<rect x="392" y="385" width="101" height="19" fill="white"/>
<rect x="392" y="385" width="101" height="19" fill="white"/>
<rect x="392" y="385" width="101" height="19" fill="white"/>
<rect x="392" y="385" width="101" height="19" fill="white"/>
<rect x="561" y="385" width="101" height="19" fill="white"/>
<rect x="561" y="385" width="101" height="19" fill="white"/>
<rect x="561" y="385" width="101" height="19" fill="white"/>
<rect x="561" y="385" width="101" height="19" fill="white"/>
<rect x="730" y="385" width="101" height="19" fill="white"/>
<rect x="730" y="385" width="101" height="19" fill="white"/>
<rect x="730" y="385" width="101" height="19" fill="white"/>
<rect x="730" y="385" width="101" height="19" fill="white"/>
<rect x="899" y="385" width="101" height="19" fill="white"/>
<rect x="899" y="385" width="101" height="19" fill="white"/>
<rect x="899" y="385" width="101" height="19" fill="white"/>
<rect x="899" y="385" width="101" height="19" fill="white"/>
<rect x="1068" y="385" width="101" height="19" fill="white"/>
<rect x="1068" y="385" width="101" height="19" fill="white"/>
<rect x="1068" y="385" width="101" height="19" fill="white"/>
<rect x="1068" y="385" width="101" height="19" fill="white"/>
<rect x="1237" y="385" width="101" height="19" fill="white"/>
<rect x="1237" y="385" width="101" height="19" fill="white"/>
<rect x="1237" y="385" width="101" height="19" fill="white"/>
<rect x="1237" y="385" width="101" height="19" fill="white"/>
<rect x="1406" y="385" width="101" height="19" fill="white"/>
<rect x="1406" y="385" width="101" height="19" fill="white"/>
<rect x="1406" y="385" width="101" height="19" fill="white"/>
<rect x="1406" y="385" width="101" height="19" fill="white"/>
<rect x="1575" y="385" width="101" height="19" fill="white"/>
<rect x="1575" y="385" width="101" height="19" fill="white"/>
<rect x="1575" y="385" width="101" height="19" fill="white"/>
<rect x="1575" y="385" width="101" height="19" fill="white"/>
<rect x="1744" y="385" width="101" height="19" fill="white"/>
<rect x="1744" y="385" width="101" height="19" fill="white"/>
<rect x="1744" y="385" width="101" height="19" fill="white"/>
<rect x="1744" y="385" width="101" height="19" fill="white"/>
<rect x="162" y="136" width="20" height="130" fill="#815959"/>
<circle cx="172" cy="75" r="75" fill="#408D43"/>
<ellipse cx="163.5" cy="80.5" rx="66.5" ry="69.5" fill="#37B93C"/>
<rect x="442.333" y="213.752" width="9.33333" height="54.2481" fill="#815959"/>
<ellipse cx="447" cy="188.297" rx="35" ry="31.297" fill="#408D43"/>
<ellipse cx="443.033" cy="190.592" rx="31.0333" ry="29.0019" fill="#37B93C"/>
<rect x="1526.83" y="206.444" width="11.3333" height="62.5564" fill="#815959"/>
<ellipse cx="1532.5" cy="177.09" rx="42.5" ry="36.0902" fill="#408D43"/>
<ellipse cx="1527.68" cy="179.737" rx="37.6833" ry="33.4436" fill="#37B93C"/>
<rect x="1119.3" y="158.549" width="16.4" height="110.451" fill="#815959"/>
<ellipse cx="1127.5" cy="106.722" rx="61.5" ry="63.7218" fill="#408D43"/>
<ellipse cx="1120.53" cy="111.395" rx="54.53" ry="59.0489" fill="#37B93C"/>
<rect x="1320.77" y="198.94" width="13.4667" height="84.0602" fill="#815959"/>
<ellipse cx="1327.5" cy="159.496" rx="50.5" ry="48.4962" fill="#408D43"/>
<ellipse cx="1321.78" cy="163.053" rx="44.7767" ry="44.9398" fill="#37B93C"/>
<rect x="1779.6" y="176.188" width="16.8" height="94.812" fill="#815959"/>
<ellipse cx="1788" cy="131.699" rx="63" ry="54.6992" fill="#408D43"/>
<ellipse cx="1780.86" cy="135.711" rx="55.86" ry="50.688" fill="#37B93C"/>
<rect x="1640" y="138" width="20" height="130" fill="#815959"/>
<circle cx="1650" cy="77" r="75" fill="#408D43"/>
<ellipse cx="1641.5" cy="82.5" rx="66.5" ry="69.5" fill="#37B93C"/>
<rect x="1422" y="136" width="20" height="130" fill="#815959"/>
<circle cx="1432" cy="75" r="75" fill="#408D43"/>
<ellipse cx="1423.5" cy="80.5" rx="66.5" ry="69.5" fill="#37B93C"/>
<rect x="1216" y="136" width="20" height="130" fill="#815959"/>
<circle cx="1226" cy="75" r="75" fill="#408D43"/>
<ellipse cx="1217.5" cy="80.5" rx="66.5" ry="69.5" fill="#37B93C"/>
<rect x="951.6" y="172.654" width="16.8" height="93.3459" fill="#815959"/>
<ellipse cx="960" cy="128.853" rx="63" ry="53.8534" fill="#408D43"/>
<ellipse cx="952.86" cy="132.803" rx="55.86" ry="49.9041" fill="#37B93C"/>
<rect x="245.667" y="176.564" width="14.6667" height="89.4361" fill="#815959"/>
<ellipse cx="253" cy="134.598" rx="55" ry="51.5977" fill="#408D43"/>
<ellipse cx="246.767" cy="138.382" rx="48.7667" ry="47.8139" fill="#37B93C"/>
<rect x="826.5" y="195.872" width="14" height="81.1278" fill="#815959"/>
<ellipse cx="833.5" cy="157.805" rx="52.5" ry="46.8045" fill="#408D43"/>
<ellipse cx="827.55" cy="161.237" rx="46.55" ry="43.3722" fill="#37B93C"/>
<rect x="358" y="147" width="20" height="130" fill="#815959"/>
<circle cx="368" cy="86" r="75" fill="#408D43"/>
<ellipse cx="359.5" cy="91.5" rx="66.5" ry="69.5" fill="#37B93C"/>
<rect x="613.967" y="141.376" width="19.0667" height="124.624" fill="#815959"/>
<ellipse cx="623.5" cy="82.8985" rx="71.5" ry="71.8985" fill="#408D43"/>
<ellipse cx="615.397" cy="88.171" rx="63.3967" ry="66.6259" fill="#37B93C"/>
<rect x="551.933" y="172.654" width="18.1333" height="93.3459" fill="#815959"/>
<ellipse cx="561" cy="128.853" rx="68" ry="53.8534" fill="#408D43"/>
<ellipse cx="553.293" cy="132.803" rx="60.2933" ry="49.9041" fill="#37B93C"/>
</svg>
