<svg width="2122" height="392" viewBox="0 0 2122 392" fill="none" xmlns="http://www.w3.org/2000/svg">
<rect x="1098" y="192" width="200" height="200" fill="#AEAEAE"/>
<path d="M1198.5 118L1299.39 193.75H1097.61L1198.5 118Z" fill="#CD6464"/>
<rect x="1126" y="307" width="41" height="85" fill="#7C5C5C"/>
<rect x="1108" y="210" width="85" height="75" fill="#828EAF"/>
<rect x="1204" y="210" width="85" height="75" fill="#828EAF"/>
<rect x="1204" y="298" width="85" height="75" fill="#828EAF"/>
<rect x="1119" y="210" width="7" height="75" fill="#9E9E9E"/>
<rect x="1215" y="298" width="7" height="75" fill="#9E9E9E"/>
<rect x="1176" y="210" width="7" height="75" fill="#9E9E9E"/>
<rect x="1270" y="210" width="7" height="75" fill="#9E9E9E"/>
<rect x="1215" y="210" width="7" height="75" fill="#9E9E9E"/>
<rect x="1270" y="298" width="7" height="75" fill="#9E9E9E"/>
<rect x="1905" y="190" width="200" height="200" fill="#C4C4C4"/>
<path d="M2005.5 116L2106.39 191.75H1904.61L2005.5 116Z" fill="#CD6464"/>
<rect x="1933" y="305" width="41" height="85" fill="#7C5C5C"/>
<rect x="1915" y="208" width="85" height="75" fill="#828EAF"/>
<rect x="2011" y="208" width="85" height="75" fill="#828EAF"/>
<rect x="2011" y="296" width="85" height="75" fill="#828EAF"/>
<rect x="1926" y="208" width="7" height="75" fill="#9E9E9E"/>
<rect x="2022" y="296" width="7" height="75" fill="#9E9E9E"/>
<rect x="1983" y="208" width="7" height="75" fill="#9E9E9E"/>
<rect x="2077" y="208" width="7" height="75" fill="#9E9E9E"/>
<rect x="2022" y="208" width="7" height="75" fill="#9E9E9E"/>
<rect x="2077" y="296" width="7" height="75" fill="#9E9E9E"/>
<rect x="941" y="257.693" width="200" height="134.307" fill="#C4C4C4"/>
<path d="M1041.5 208L1142.39 258.869H940.608L1041.5 208Z" fill="#CD6464"/>
<rect x="969" y="334.92" width="41" height="57.0803" fill="#7C5C5C"/>
<rect x="951" y="269.781" width="85" height="50.365" fill="#828EAF"/>
<rect x="1047" y="269.781" width="85" height="50.365" fill="#828EAF"/>
<rect x="1047" y="328.876" width="85" height="50.365" fill="#828EAF"/>
<rect x="962" y="269.781" width="7" height="50.365" fill="#9E9E9E"/>
<rect x="1058" y="328.876" width="7" height="50.365" fill="#9E9E9E"/>
<rect x="1019" y="269.781" width="7" height="50.365" fill="#9E9E9E"/>
<rect x="1113" y="269.781" width="7" height="50.365" fill="#9E9E9E"/>
<rect x="1058" y="269.781" width="7" height="50.365" fill="#9E9E9E"/>
<rect x="1113" y="328.876" width="7" height="50.365" fill="#9E9E9E"/>
<rect x="1470.98" y="167.022" width="249.785" height="218.978" fill="#C4C4C4"/>
<path d="M1596.5 86L1722.51 168.938H1470.49L1596.5 86Z" fill="#CD6464"/>
<rect x="1505.95" y="292.934" width="51.206" height="93.0657" fill="#7C5C5C"/>
<rect x="1483.47" y="186.73" width="106.159" height="82.1168" fill="#828EAF"/>
<rect x="1603.37" y="186.73" width="106.159" height="82.1168" fill="#828EAF"/>
<rect x="1603.37" y="283.08" width="106.159" height="82.1168" fill="#828EAF"/>
<rect x="1497.21" y="186.73" width="8.74249" height="82.1168" fill="#9E9E9E"/>
<rect x="1617.11" y="283.08" width="8.74249" height="82.1168" fill="#9E9E9E"/>
<rect x="1568.4" y="186.73" width="8.74249" height="82.1168" fill="#9E9E9E"/>
<rect x="1685.8" y="186.73" width="8.74249" height="82.1168" fill="#9E9E9E"/>
<rect x="1617.11" y="186.73" width="8.74249" height="82.1168" fill="#9E9E9E"/>
<rect x="1685.8" y="283.08" width="8.74249" height="82.1168" fill="#9E9E9E"/>
<rect x="16" y="190" width="200" height="200" fill="#C4C4C4"/>
<path d="M116.5 116L217.392 191.75H15.608L116.5 116Z" fill="#CD6464"/>
<rect x="44" y="305" width="41" height="85" fill="#7C5C5C"/>
<rect x="26" y="208" width="85" height="75" fill="#828EAF"/>
<rect x="122" y="208" width="85" height="75" fill="#828EAF"/>
<rect x="122" y="296" width="85" height="75" fill="#828EAF"/>
<rect x="37" y="208" width="7" height="75" fill="#9E9E9E"/>
<rect x="133" y="296" width="7" height="75" fill="#9E9E9E"/>
<rect x="94" y="208" width="7" height="75" fill="#9E9E9E"/>
<rect x="188" y="208" width="7" height="75" fill="#9E9E9E"/>
<rect x="133" y="208" width="7" height="75" fill="#9E9E9E"/>
<rect x="188" y="296" width="7" height="75" fill="#9E9E9E"/>
<rect x="1161" y="190" width="200" height="200" fill="#C4C4C4"/>
<path d="M1261.5 116L1362.39 191.75H1160.61L1261.5 116Z" fill="#CD6464"/>
<rect x="1189" y="305" width="41" height="85" fill="#7C5C5C"/>
<rect x="1171" y="208" width="85" height="75" fill="#828EAF"/>
<rect x="1267" y="208" width="85" height="75" fill="#828EAF"/>
<rect x="1267" y="296" width="85" height="75" fill="#828EAF"/>
<rect x="1182" y="208" width="7" height="75" fill="#9E9E9E"/>
<rect x="1278" y="296" width="7" height="75" fill="#9E9E9E"/>
<rect x="1239" y="208" width="7" height="75" fill="#9E9E9E"/>
<rect x="1333" y="208" width="7" height="75" fill="#9E9E9E"/>
<rect x="1278" y="208" width="7" height="75" fill="#9E9E9E"/>
<rect x="1333" y="296" width="7" height="75" fill="#9E9E9E"/>
<rect x="380.601" y="201.679" width="257.511" height="188.321" fill="#C4C4C4"/>
<path d="M510 132L639.904 203.327H380.096L510 132Z" fill="#CD6464"/>
<rect x="416.652" y="309.964" width="52.7897" height="80.0365" fill="#7C5C5C"/>
<rect x="393.476" y="218.628" width="109.442" height="70.6204" fill="#828EAF"/>
<rect x="517.082" y="218.628" width="109.442" height="70.6204" fill="#828EAF"/>
<rect x="517.082" y="301.489" width="109.442" height="70.6204" fill="#828EAF"/>
<rect x="407.639" y="218.628" width="9.01288" height="70.6204" fill="#9E9E9E"/>
<rect x="531.245" y="301.489" width="9.01288" height="70.6204" fill="#9E9E9E"/>
<rect x="481.03" y="218.628" width="9.01288" height="70.6204" fill="#9E9E9E"/>
<rect x="602.06" y="218.628" width="9.01288" height="70.6204" fill="#9E9E9E"/>
<rect x="531.245" y="218.628" width="9.01288" height="70.6204" fill="#9E9E9E"/>
<rect x="602.06" y="301.489" width="9.01288" height="70.6204" fill="#9E9E9E"/>
<rect x="1250" y="261" width="118" height="131" fill="#CACACA"/>
<path d="M1309 224L1368.76 261.5H1249.24L1309 224Z" fill="#D3D07B"/>
<rect x="1294" y="338" width="30" height="54" fill="#7C5C5C"/>
<rect x="1257" y="284" width="46" height="42" fill="#869ABF"/>
<rect x="1315" y="285" width="46" height="42" fill="#869ABF"/>
<rect width="4" height="41" transform="matrix(-1 0 0 1 1267 285)" fill="#A2A2A2"/>
<rect width="4" height="41" transform="matrix(-1 0 0 1 1356 285)" fill="#A2A2A2"/>
<rect width="4" height="41" transform="matrix(-1 0 0 1 1298 284)" fill="#A2A2A2"/>
<rect width="4" height="41" transform="matrix(-1 0 0 1 1324 285)" fill="#A2A2A2"/>
<rect x="1250" y="261" width="118" height="131" fill="#CACACA"/>
<path d="M1309 224L1368.76 261.5H1249.24L1309 224Z" fill="#D3D07B"/>
<rect x="1294" y="338" width="30" height="54" fill="#7C5C5C"/>
<rect x="1257" y="284" width="46" height="42" fill="#869ABF"/>
<rect x="1315" y="285" width="46" height="42" fill="#869ABF"/>
<rect width="4" height="41" transform="matrix(-1 0 0 1 1267 285)" fill="#A2A2A2"/>
<rect width="4" height="41" transform="matrix(-1 0 0 1 1356 285)" fill="#A2A2A2"/>
<rect width="4" height="41" transform="matrix(-1 0 0 1 1298 284)" fill="#A2A2A2"/>
<rect width="4" height="41" transform="matrix(-1 0 0 1 1324 285)" fill="#A2A2A2"/>
<rect x="542.855" y="261" width="175.29" height="131" fill="#CACACA"/>
<path d="M630.5 224L719.268 261.5H541.732L630.5 224Z" fill="#D3D07B"/>
<rect x="608.217" y="338" width="44.5652" height="54" fill="#7C5C5C"/>
<rect x="553.254" y="284" width="68.3333" height="42" fill="#869ABF"/>
<rect x="639.413" y="285" width="68.3333" height="42" fill="#869ABF"/>
<rect width="5.94203" height="41" transform="matrix(-1 0 0 1 568.109 285)" fill="#A2A2A2"/>
<rect width="5.94203" height="41" transform="matrix(-1 0 0 1 700.319 285)" fill="#A2A2A2"/>
<rect width="5.94203" height="41" transform="matrix(-1 0 0 1 614.159 284)" fill="#A2A2A2"/>
<rect width="5.94203" height="41" transform="matrix(-1 0 0 1 652.783 285)" fill="#A2A2A2"/>
<rect x="705.288" y="24.0491" width="309.295" height="367.951" fill="#DBD668"/>
<rect x="694" width="333" height="24.0491" fill="#C0BC58"/>
<rect x="705.288" y="183.975" width="309.295" height="24.0491" fill="#C0BC58"/>
<rect x="822.685" y="258.528" width="74.5017" height="133.472" fill="#7C5C5C"/>
<rect x="731.251" y="54.1104" width="115.139" height="99.8037" fill="#869ABF"/>
<rect x="873.481" y="54.1104" width="115.139" height="99.8037" fill="#869ABF"/>
<rect x="731.251" y="258.528" width="68.8576" height="69.7423" fill="#869ABF"/>
<rect x="919.763" y="258.528" width="68.8576" height="69.7423" fill="#869ABF"/>
<rect x="925" y="261" width="118" height="131" fill="#CACACA"/>
<path d="M984 224L1043.76 261.5H924.244L984 224Z" fill="#D3D07B"/>
<rect x="969" y="338" width="30" height="54" fill="#7C5C5C"/>
<rect x="932" y="284" width="46" height="42" fill="#869ABF"/>
<rect x="990" y="285" width="46" height="42" fill="#869ABF"/>
<rect width="4" height="41" transform="matrix(-1 0 0 1 942 285)" fill="#A2A2A2"/>
<rect width="4" height="41" transform="matrix(-1 0 0 1 1031 285)" fill="#A2A2A2"/>
<rect width="4" height="41" transform="matrix(-1 0 0 1 973 284)" fill="#A2A2A2"/>
<rect width="4" height="41" transform="matrix(-1 0 0 1 999 285)" fill="#A2A2A2"/>
<rect x="1699" y="84" width="274" height="306" fill="#6EBE61"/>
<rect x="1689" y="64" width="295" height="20" fill="#3D8555"/>
<rect x="1699" y="217" width="274" height="20" fill="#3D8555"/>
<rect x="1803" y="279" width="66" height="111" fill="#7C5C5C"/>
<rect x="1722" y="109" width="102" height="83" fill="#869ABF"/>
<rect x="1848" y="109" width="102" height="83" fill="#869ABF"/>
<rect x="1722" y="279" width="61" height="58" fill="#869ABF"/>
<rect x="1889" y="279" width="61" height="58" fill="#869ABF"/>
<rect x="1624" y="259" width="118" height="131" fill="#CACACA"/>
<path d="M1683 222L1742.76 259.5H1623.24L1683 222Z" fill="#D3D07B"/>
<rect x="1668" y="336" width="30" height="54" fill="#7C5C5C"/>
<rect x="1631" y="282" width="46" height="42" fill="#869ABF"/>
<rect x="1689" y="283" width="46" height="42" fill="#869ABF"/>
<rect width="4" height="41" transform="matrix(-1 0 0 1 1641 283)" fill="#A2A2A2"/>
<rect width="4" height="41" transform="matrix(-1 0 0 1 1730 283)" fill="#A2A2A2"/>
<rect width="4" height="41" transform="matrix(-1 0 0 1 1672 282)" fill="#A2A2A2"/>
<rect width="4" height="41" transform="matrix(-1 0 0 1 1698 283)" fill="#A2A2A2"/>
<rect x="190" y="86" width="274" height="306" fill="#5F428E"/>
<rect x="180" y="66" width="295" height="20" fill="#453067"/>
<rect x="190" y="219" width="274" height="20" fill="#453067"/>
<rect x="294" y="281" width="66" height="111" fill="#7C5C5C"/>
<rect x="213" y="111" width="102" height="83" fill="#869ABF"/>
<rect x="339" y="111" width="102" height="83" fill="#869ABF"/>
<rect x="213" y="281" width="61" height="58" fill="#869ABF"/>
<rect x="380" y="281" width="61" height="58" fill="#869ABF"/>
<rect x="126" y="261" width="118" height="131" fill="#CACACA"/>
<path d="M185 224L244.756 261.5H125.244L185 224Z" fill="#D3D07B"/>
<rect x="170" y="338" width="30" height="54" fill="#7C5C5C"/>
<rect x="133" y="284" width="46" height="42" fill="#869ABF"/>
<rect x="191" y="285" width="46" height="42" fill="#869ABF"/>
<rect width="4" height="41" transform="matrix(-1 0 0 1 143 285)" fill="#A2A2A2"/>
<rect width="4" height="41" transform="matrix(-1 0 0 1 232 285)" fill="#A2A2A2"/>
<rect width="4" height="41" transform="matrix(-1 0 0 1 174 284)" fill="#A2A2A2"/>
<rect width="4" height="41" transform="matrix(-1 0 0 1 200 285)" fill="#A2A2A2"/>
</svg>
